<?xml version="1.0" encoding="UTF-8"?>
<svg version="1.1" xmlns="http://www.w3.org/2000/svg" width="500" height="500">
<path d="M0 0 C1.03833984 0.33741211 1.03833984 0.33741211 2.09765625 0.68164062 C6.82167958 2.260665 11.41152662 4.06286198 16 6 C17.02351562 6.42796875 18.04703125 6.8559375 19.1015625 7.296875 C45.77562364 19.51949062 63.22377028 42.50926149 76 68 C76.69222656 66.61941406 76.69222656 66.61941406 77.3984375 65.2109375 C92.17030351 36.31013006 114.86252928 13.01651335 146 2 C177.19672908 -7.7428076 209.52182999 -6.7277327 239 8 C247.35532959 12.41539993 254.82421202 17.88293483 262 24 C262.78632813 24.6290625 263.57265625 25.258125 264.3828125 25.90625 C285.26653409 43.36530985 299.51770059 71.9695109 302 99 C302.79535461 115.09158162 302.49133845 130.48063335 298 146 C297.80696289 146.70640625 297.61392578 147.4128125 297.41503906 148.140625 C294.57495118 158.36307596 290.40392923 167.95286857 285.9375 177.5625 C285.43089844 178.67641113 284.92429687 179.79032227 284.40234375 180.93798828 C283.65984375 182.48655518 283.65984375 182.48655518 282.90234375 184.06640625 C282.24480103 185.4577478 282.24480103 185.4577478 281.57397461 186.87719727 C280 189 280 189 277.70947266 189.84326172 C274.63189314 190.02129434 271.80770828 189.81271184 268.74609375 189.44140625 C266.97008789 189.23354492 266.97008789 189.23354492 265.15820312 189.02148438 C263.31645508 188.79428711 263.31645508 188.79428711 261.4375 188.5625 C258.99891969 188.27027871 256.56012534 187.97983669 254.12109375 187.69140625 C253.0427124 187.55935791 251.96433105 187.42730957 250.85327148 187.29125977 C247.81479627 186.93229899 247.81479627 186.93229899 244 187 C242.68 190.96 241.36 194.92 240 199 C239.34 199 238.68 199 238 199 C234.37 176.89 230.74 154.78 227 132 C221.48376793 163.49717023 221.48376793 163.49717023 216 195 C215.34 195 214.68 195 214 195 C212.02 185.43 210.04 175.86 208 166 C204.54808476 172.15618218 204.54808476 172.15618218 201.12011719 178.32568359 C200.68344727 179.09219238 200.24677734 179.85870117 199.796875 180.6484375 C199.13703613 181.82672119 199.13703613 181.82672119 198.46386719 183.02880859 C195.07012286 187.59870381 189.60215919 187.81648012 184.30859375 188.6171875 C171.55508781 190.09279976 158.70627244 188.27632512 146 187 C144.68 190.96 143.36 194.92 142 199 C141.34 199 140.68 199 140 199 C136.37 176.89 132.74 154.78 129 132 C123.37493061 163.97876301 123.37493061 163.97876301 118 196 C117.34 195.67 116.68 195.34 116 195 C115.22216797 192.22436523 115.22216797 192.22436523 114.4921875 188.55859375 C114.36184113 187.91632339 114.23149475 187.27405304 114.09719849 186.61231995 C113.68172154 184.55557312 113.2782521 182.49667497 112.875 180.4375 C112.59583821 179.04476407 112.31590019 177.65218349 112.03515625 176.25976562 C111.34774647 172.84160218 110.67108751 169.42140993 110 166 C109.68772461 166.56509277 109.37544922 167.13018555 109.05371094 167.71240234 C107.63037549 170.27303654 106.19045718 172.82396133 104.75 175.375 C104.25886719 176.26445312 103.76773438 177.15390625 103.26171875 178.0703125 C102.77832031 178.92109375 102.29492188 179.771875 101.796875 180.6484375 C101.35698242 181.43395996 100.91708984 182.21948242 100.46386719 183.02880859 C97.07012286 187.59870381 91.60215919 187.81648012 86.30859375 188.6171875 C73.55508781 190.09279976 60.70627244 188.27632512 48 187 C46.68 190.96 45.36 194.92 44 199 C43.34 199 42.68 199 42 199 C38.37 177.22 34.74 155.44 31 133 C27.9223453 148.9912159 27.9223453 148.9912159 25.078125 165.01953125 C24.92841248 165.89985519 24.77869995 166.78017914 24.62445068 167.68717957 C24.16434089 170.39529193 23.7070879 173.10387616 23.25 175.8125 C22.93118304 177.69209012 22.61217325 179.57164753 22.29296875 181.45117188 C21.52643869 185.96707685 20.76246243 190.48340655 20 195 C19.34 195 18.68 195 18 195 C16.02 185.43 14.04 175.86 12 166 C10.453125 169.2175 8.90625 172.435 7.3125 175.75 C4.15156848 181.53953427 1.32018581 186.08834348 -5.15625 188.21875 C-10.40339244 189.39437735 -15.63282109 189.86766153 -21 190 C-21.68787598 190.03544922 -22.37575195 190.07089844 -23.08447266 190.10742188 C-30.77048489 190.34789441 -38.40517447 189.04370608 -46 188 C-45.98952637 187.01829834 -45.97905273 186.03659668 -45.96826172 185.02514648 C-45.93146553 181.30692337 -45.90888787 177.58871551 -45.89013672 173.87036133 C-45.88021249 172.27528152 -45.86666873 170.68021923 -45.84912109 169.08520508 C-45.10963713 147.44958037 -45.10963713 147.44958037 -53 128 C-60.87020865 120.74841037 -71.61113721 120.68100575 -81.75390625 120.62890625 C-83.40434181 120.61536354 -83.40434181 120.61536354 -85.08811951 120.60154724 C-87.4017365 120.58711285 -89.71539369 120.57817507 -92.02905273 120.57446289 C-95.55587324 120.56252244 -99.08096731 120.51322996 -102.60742188 120.46289062 C-104.86457487 120.45342971 -107.12173851 120.44619309 -109.37890625 120.44140625 C-110.94796471 120.41210777 -110.94796471 120.41210777 -112.54872131 120.38221741 C-119.29261938 120.42356033 -123.88521078 121.45702449 -129 126 C-133.58037781 131.00098767 -133.60065265 135.53471379 -133.609375 141.9921875 C-133.62591125 142.93812775 -133.64244751 143.88406799 -133.65948486 144.8586731 C-133.70786315 147.86418212 -133.72931338 150.86918552 -133.75 153.875 C-133.77816816 155.91929613 -133.80809677 157.96356881 -133.83984375 160.0078125 C-133.91361956 165.0051667 -133.96325644 170.00224187 -134 175 C-136.91591188 171.29370376 -138.67475826 167.43448245 -140.375 163.0625 C-140.82963623 161.89497192 -140.82963623 161.89497192 -141.29345703 160.70385742 C-150.43739943 136.29990561 -153.83673009 108.40150937 -147 83 C-146.68289062 81.80117187 -146.36578125 80.60234375 -146.0390625 79.3671875 C-137.30209837 50.18200945 -116.72987015 24.56035215 -90.08984375 9.78515625 C-81.38668955 5.15640526 -72.49537841 1.67818365 -63 -1 C-61.9378125 -1.3196875 -60.875625 -1.639375 -59.78125 -1.96875 C-40.93770411 -6.72366345 -18.48035047 -6.04514411 0 0 Z " fill="#7E2FC5" transform="translate(180,54)"/>
<path d="M0 0 C2.48746369 2.48746369 2.50298774 3.8329804 3.05322266 7.27587891 C3.23325836 8.3768692 3.41329407 9.4778595 3.5987854 10.61221313 C3.87859756 12.40131607 3.87859756 12.40131607 4.1640625 14.2265625 C4.36099701 15.44451508 4.55793152 16.66246765 4.76083374 17.91732788 C5.28285774 21.15506987 5.79780772 24.39383429 6.30938721 27.63323975 C6.83317377 30.9387371 7.36632713 34.24270735 7.8984375 37.546875 C8.94082563 44.02990661 9.97390457 50.51437087 11 57 C13.66224362 50.52893672 16.08067359 44.02686313 18.25 37.375 C18.518125 36.56160156 18.78625 35.74820313 19.0625 34.91015625 C19.71115309 32.94103079 20.35599641 30.97065098 21 29 C21.91962021 29.01451706 21.91962021 29.01451706 22.8578186 29.02932739 C29.25007353 29.12039907 35.63986037 29.14140266 42.03271484 29.12207031 C44.41691132 29.12401474 46.80116302 29.14371278 49.18505859 29.18164062 C52.61725019 29.23314496 56.04418015 29.22039067 59.4765625 29.1953125 C60.53928375 29.22505157 61.602005 29.25479065 62.69692993 29.28543091 C65.77859445 29.22609596 68.11154015 29.08750474 71 28 C73.70554808 24.95193255 75.41823616 21.7400445 77 18 C77.66 18.33 78.32 18.66 79 19 C79.7497162 21.8802581 80.37873031 24.711429 80.9453125 27.62890625 C81.12005096 28.49313705 81.29478943 29.35736786 81.474823 30.24778748 C82.03295806 33.01780906 82.57908853 35.79004616 83.125 38.5625 C83.50051587 40.43700663 83.87680784 42.31135797 84.25390625 44.18554688 C85.17829766 48.78860858 86.09192731 53.39369243 87 58 C87.33 58 87.66 58 88 58 C88.16579811 57.02067253 88.16579811 57.02067253 88.33494568 56.02156067 C89.48583554 49.22442797 90.63775948 42.42747109 91.7902832 35.63061523 C92.220236 33.09420186 92.6499254 30.55774382 93.0793457 28.02124023 C93.69673475 24.37471929 94.31507182 20.72836018 94.93359375 17.08203125 C95.12529648 15.94852737 95.31699921 14.8150235 95.51451111 13.64717102 C95.69462234 12.58644882 95.87473358 11.52572662 96.06030273 10.43286133 C96.21796616 9.50242508 96.37562958 8.57198883 96.53807068 7.61335754 C96.98814731 5.06705638 97.48255797 2.5333886 98 0 C98.99 0.495 98.99 0.495 100 1 C100.58218384 3.24623108 100.58218384 3.24623108 101.05322266 6.25415039 C101.23325836 7.37523697 101.41329407 8.49632355 101.5987854 9.65138245 C101.87859756 11.48103798 101.87859756 11.48103798 102.1640625 13.34765625 C102.36099701 14.58921982 102.55793152 15.83078339 102.76083374 17.10997009 C103.28344032 20.41508989 103.7982511 23.72123695 104.30938721 27.02813721 C104.83259982 30.40063759 105.36593565 33.77153431 105.8984375 37.14257812 C106.94166856 43.76027449 107.97465749 50.37950976 109 57 C109.63264302 55.43629877 110.26346782 53.87186187 110.89355469 52.30712891 C111.24504578 51.43601471 111.59653687 50.56490051 111.9586792 49.66738892 C113.53934673 45.61843968 114.90249682 41.50614044 116.25 37.375 C117.1575 34.61125 118.065 31.8475 119 29 C129.23 29 139.46 29 150 29 C144.37144662 40.25710676 144.37144662 40.25710676 141.984375 43.7109375 C141.45996826 44.4747876 140.93556152 45.2386377 140.39526367 46.02563477 C139.85232666 46.80092529 139.30938965 47.57621582 138.75 48.375 C138.17934814 49.19863037 137.60869629 50.02226074 137.02075195 50.87084961 C124.77545059 68.45592228 111.215537 84.97931545 97 101 C96.00806641 102.13115234 96.00806641 102.13115234 94.99609375 103.28515625 C90.25755997 108.63401996 85.32520763 113.72279956 80.24047852 118.73803711 C77.61631062 121.33856765 75.09753121 123.95964191 72.75 126.8125 C70.23215992 129.85277376 67.40766442 132.30194305 64.40234375 134.8515625 C61.31089739 137.61627062 58.413438 140.54989401 55.5 143.5 C51.47990297 147.56121165 47.43772465 151.50296059 43.078125 155.203125 C40.91917997 157.06988198 38.82459507 158.99888892 36.7331543 160.94067383 C31.60217725 165.70208437 26.35791422 170.23783733 20.90234375 174.62890625 C17.61036968 177.31831171 14.39995032 180.09170396 11.1875 182.875 C4.85520971 188.34103991 -1.65982987 193.53260366 -8.27197266 198.65429688 C-9.9647144 199.9725213 -11.64618555 201.30374402 -13.32421875 202.640625 C-22.33843371 209.81123247 -31.55412763 216.70039753 -40.88623047 223.45214844 C-42.25541029 224.45475874 -43.60992593 225.47783909 -44.94580078 226.52441406 C-47.38121678 228.39619206 -49.48558993 229.86714449 -52.48046875 230.640625 C-56.4364088 229.63477358 -59.15692964 227.26743877 -62.3125 224.75 C-63.74576048 223.63889288 -65.17936375 222.52822783 -66.61328125 221.41796875 C-67.34240723 220.84739746 -68.0715332 220.27682617 -68.82275391 219.68896484 C-71.52657619 217.5915167 -74.27349453 215.55678825 -77.02563477 213.5234375 C-85.30853191 207.39448282 -93.31032077 200.95243312 -101.27099609 194.41308594 C-103.55819327 192.54379799 -105.87146225 190.70837399 -108.1875 188.875 C-112.5639872 185.38702782 -116.83415027 181.78247316 -121.09204102 178.15161133 C-125.57638452 174.33363475 -130.14462216 170.63446164 -134.7578125 166.97265625 C-136.87097301 165.11351678 -138.35725931 163.26710013 -140 161 C-139.45400146 160.99413376 -138.90800293 160.98826752 -138.34545898 160.98222351 C-132.63443333 160.91801676 -126.92395704 160.83352861 -121.21337891 160.73754883 C-119.08552316 160.70440718 -116.95758177 160.67634213 -114.82958984 160.65356445 C-111.76102392 160.61982028 -108.69323518 160.56749432 -105.625 160.51171875 C-104.68197021 160.50532883 -103.73894043 160.4989389 -102.76733398 160.49235535 C-96.61628998 160.35712182 -90.23071856 159.93278476 -85.44018555 155.58403015 C-81.16163248 150.66465136 -80.8457564 146.55858933 -80.82299805 140.3190918 C-80.81642685 139.53825226 -80.80985565 138.75741272 -80.80308533 137.95291138 C-80.78337167 135.36834618 -80.77169437 132.78383901 -80.76171875 130.19921875 C-80.75764322 129.31582132 -80.7535677 128.4324239 -80.74936867 127.52225685 C-80.72851667 122.84695291 -80.71421091 118.17167826 -80.70483398 113.49633789 C-80.69376831 108.67088978 -80.65936421 103.84590263 -80.61966228 99.02061749 C-80.59350199 95.30679982 -80.5851427 91.59309214 -80.58155251 87.87919044 C-80.57668542 86.10061338 -80.56506792 84.32204126 -80.54651451 82.54355431 C-80.5221339 80.05169624 -80.52308569 77.56103293 -80.5300293 75.0690918 C-80.51721924 74.33796677 -80.50440918 73.60684174 -80.49121094 72.8535614 C-80.54615411 67.42984552 -82.15515898 63.84484102 -86 60 C-85.60589717 52.8893787 -83.34941831 46.6567279 -80.9375 40 C-80.56044922 38.93910156 -80.18339844 37.87820312 -79.79492188 36.78515625 C-78.87050336 34.1874232 -77.93872888 31.59258863 -77 29 C-76.08037979 29.01451706 -76.08037979 29.01451706 -75.1421814 29.02932739 C-68.74992647 29.12039907 -62.36013963 29.14140266 -55.96728516 29.12207031 C-53.58308868 29.12401474 -51.19883698 29.14371278 -48.81494141 29.18164062 C-45.38274981 29.23314496 -41.95581985 29.22039067 -38.5234375 29.1953125 C-37.46071625 29.22505157 -36.397995 29.25479065 -35.30307007 29.28543091 C-32.22140555 29.22609596 -29.88845985 29.08750474 -27 28 C-24.29445192 24.95193255 -22.58176384 21.7400445 -21 18 C-20.34 18.33 -19.68 18.66 -19 19 C-18.2502838 21.8802581 -17.62126969 24.711429 -17.0546875 27.62890625 C-16.87994904 28.49313705 -16.70521057 29.35736786 -16.525177 30.24778748 C-15.96704194 33.01780906 -15.42091147 35.79004616 -14.875 38.5625 C-14.49948413 40.43700663 -14.12319216 42.31135797 -13.74609375 44.18554688 C-12.82170234 48.78860858 -11.90807269 53.39369243 -11 58 C-10.67 58 -10.34 58 -10 58 C-9.83420189 56.9985495 -9.83420189 56.9985495 -9.66505432 55.97686768 C-8.51523444 49.03373166 -7.36313929 42.09097593 -6.2097168 35.1484375 C-5.779444 32.55673773 -5.34975319 29.96494127 -4.9206543 27.37304688 C-4.3040996 23.64948415 -3.68545891 19.92627314 -3.06640625 16.203125 C-2.87470352 15.04258606 -2.68300079 13.88204712 -2.48548889 12.68634033 C-2.30537766 11.60552185 -2.12526642 10.52470337 -1.93969727 9.41113281 C-1.78203384 8.46071106 -1.62437042 7.51028931 -1.46192932 6.53106689 C-1.0587985 4.32217685 -0.57601865 2.16926723 0 0 Z " fill="#951BBC" transform="translate(308,216)"/>
<path d="M0 0 C0.66 0.33 1.32 0.66 2 1 C2.67795746 3.66481819 3.23365904 6.2722899 3.7265625 8.97265625 C3.87910492 9.77029892 4.03164734 10.56794159 4.18881226 11.38975525 C4.67570139 13.94586849 5.15046179 16.50406797 5.625 19.0625 C5.95233062 20.7924682 6.28044545 22.52228822 6.609375 24.25195312 C7.41537067 28.49963399 8.21049368 32.74922474 9 37 C4.04194276 37.07549162 -0.91576299 37.12921778 -5.87426758 37.16479492 C-7.55271243 37.17966256 -9.23112005 37.19996277 -10.90942383 37.22631836 C-19.86237158 37.36314795 -28.56667951 37.19440681 -37.41015625 35.67578125 C-38.10346542 35.55881393 -38.7967746 35.44184662 -39.51109314 35.32133484 C-44.24013116 34.41206086 -48.45564215 33.1802699 -51.328125 29.125 C-54.16707566 22.58097814 -54.3017605 18.68063451 -55 11 C-38.83 11 -22.66 11 -6 11 C-5.34 9.35 -4.68 7.7 -4 6 C-2.70211044 3.97681922 -1.37535339 1.97133986 0 0 Z " fill="#592DBD" transform="translate(189,234)"/>
<path d="M0 0 C0.66 0.33 1.32 0.66 2 1 C2.58218384 3.24623108 2.58218384 3.24623108 3.05322266 6.25415039 C3.23325836 7.37523697 3.41329407 8.49632355 3.5987854 9.65138245 C3.78532684 10.8711528 3.97186829 12.09092316 4.1640625 13.34765625 C4.36099701 14.58921982 4.55793152 15.83078339 4.76083374 17.10997009 C5.28344032 20.41508989 5.7982511 23.72123695 6.30938721 27.02813721 C6.83259982 30.40063759 7.36593565 33.77153431 7.8984375 37.14257812 C8.94166856 43.76027449 9.97465749 50.37950976 11 57 C11.63264302 55.43629877 12.26346782 53.87186187 12.89355469 52.30712891 C13.24504578 51.43601471 13.59653687 50.56490051 13.9586792 49.66738892 C15.53934673 45.61843968 16.90249682 41.50614044 18.25 37.375 C19.1575 34.61125 20.065 31.8475 21 29 C31.23 29 41.46 29 52 29 C46.37144662 40.25710676 46.37144662 40.25710676 43.984375 43.7109375 C43.45996826 44.4747876 42.93556152 45.2386377 42.39526367 46.02563477 C41.85232666 46.80092529 41.30938965 47.57621582 40.75 48.375 C39.89402222 49.61044556 39.89402222 49.61044556 39.02075195 50.87084961 C26.77545059 68.45592228 13.215537 84.97931545 -1 101 C-1.66128906 101.75410156 -2.32257813 102.50820313 -3.00390625 103.28515625 C-7.74244003 108.63401996 -12.67479237 113.72279956 -17.75952148 118.73803711 C-20.38368938 121.33856765 -22.90246879 123.95964191 -25.25 126.8125 C-27.76166084 129.84531237 -30.57496813 132.29057385 -33.578125 134.828125 C-37.40030219 138.25575487 -40.95643692 141.95072468 -44.51977539 145.64501953 C-48.67810498 149.89270166 -48.67810498 149.89270166 -52 151 C-52.99 148.525 -52.99 148.525 -54 146 C-52.906875 145.814375 -51.81375 145.62875 -50.6875 145.4375 C-47.0509502 144.42483472 -47.0509502 144.42483472 -45.8671875 142.30859375 C-44.94073788 140.16349857 -44.94073788 140.16349857 -44 137 C-43.01 137 -42.02 137 -41 137 C-37.9890638 134.9927092 -37.36983503 134.16115776 -36 131 C-35.34 131 -34.68 131 -34 131 C-34 130.34 -34 129.68 -34 129 C-32.68 128.67 -31.36 128.34 -30 128 C-30 127.34 -30 126.68 -30 126 C-29.34 126 -28.68 126 -28 126 C-27.9071875 124.824375 -27.9071875 124.824375 -27.8125 123.625 C-27.544375 122.75875 -27.27625 121.8925 -27 121 C-24.4375 119.6875 -24.4375 119.6875 -22 119 C-22 118.01 -22 117.02 -22 116 C-21.01 116 -20.02 116 -19 116 C-18.67 115.34 -18.34 114.68 -18 114 C-17.175 113.401875 -16.35 112.80375 -15.5 112.1875 C-12.70868088 109.74509577 -12.30105065 108.61260785 -12 105 C-10.576875 104.690625 -10.576875 104.690625 -9.125 104.375 C-7.578125 103.694375 -7.578125 103.694375 -6 103 C-5.29618843 101.01276732 -4.6288189 99.01222047 -4 97 C-2.34183216 96.31246699 -0.67540664 95.64438717 1 95 C1.82704005 92.53176909 1.82704005 92.53176909 2 90 C2.33 89.34 2.66 88.68 3 88 C6.0625 87.375 6.0625 87.375 9 87 C9.495 85.02 9.495 85.02 10 83 C10.66 83 11.32 83 12 83 C11.814375 82.278125 11.62875 81.55625 11.4375 80.8125 C10.98004693 77.87173027 11.26483643 75.85896942 12 73 C17.75 71.875 17.75 71.875 20 73 C19.79375 72.05125 19.5875 71.1025 19.375 70.125 C19.25125 69.09375 19.1275 68.0625 19 67 C21.5654594 64.4345406 23.47686668 64.45953913 27 64 C27.33 61.36 27.66 58.72 28 56 C29.65 55.67 31.3 55.34 33 55 C33.10957031 54.16855469 33.21914063 53.33710938 33.33203125 52.48046875 C33.49058594 51.39378906 33.64914062 50.30710937 33.8125 49.1875 C33.96332031 48.10855469 34.11414063 47.02960938 34.26953125 45.91796875 C35.02303802 42.9079711 35.54566654 41.81620676 38 40 C40.1875 39.3125 40.1875 39.3125 42 39 C42 38.21625 42 37.4325 42 36.625 C42 35.08333333 42 33.54166667 42 32 C39.54137599 31.94616152 37.0839245 31.90640962 34.625 31.875 C33.92632812 31.85824219 33.22765625 31.84148437 32.5078125 31.82421875 C30.67102514 31.80655733 28.83398037 31.89696739 27 32 C26.01 32.99 26.01 32.99 25 34 C25 35.32 25 36.64 25 38 C24.21625 38.433125 23.4325 38.86625 22.625 39.3125 C19.67606627 40.83664193 19.67606627 40.83664193 18.75 44.375 C18.37875 46.169375 18.37875 46.169375 18 48 C17.79375 48.9075 17.5875 49.815 17.375 50.75 C16.91780051 53.1130243 16.91780051 53.1130243 17 56 C16.01 56.99 16.01 56.99 15 58 C14.3574765 60.06874034 14.3574765 60.06874034 14 62 C12.68 62.33 11.36 62.66 10 63 C9.505 59.04 9.505 59.04 9 55 C8.34 55 7.68 55 7 55 C6.93941406 54.20335937 6.87882812 53.40671875 6.81640625 52.5859375 C6.20332134 44.75667303 6.20332134 44.75667303 5 37 C4.34 37 3.68 37 3 37 C3.20625 36.319375 3.4125 35.63875 3.625 34.9375 C4.10063829 31.21166669 3.17669149 28.53007446 2 25 C1.01 25 0.02 25 -1 25 C-1.93786082 30.05009595 -1.93786082 30.05009595 -1 35 C-1.66 35 -2.32 35 -3 35 C-3.90355269 39.00144764 -4.26259284 42.92744048 -4.5234375 47.01171875 C-5 49 -5 49 -8 51 C-7.4044982 40.30739979 -5.32414944 29.83337785 -3.4375 19.3125 C-3.1043982 17.43562128 -2.77171242 15.55866867 -2.43945312 13.68164062 C-1.63109784 9.12022744 -0.81711278 4.55985218 0 0 Z M0 14 C-1.0326802 16.78823655 -1.04509293 17.8677274 -0.0625 20.75 C0.288125 21.4925 0.63875 22.235 1 23 C1.66 22.67 2.32 22.34 3 22 C3.20970559 17.85906302 3.20970559 17.85906302 2 14 C1.34 14 0.68 14 0 14 Z " fill="#BF73D4" transform="translate(406,216)"/>
<path d="M0 0 C11.52574472 9.59285586 17.05981012 33.52327368 18.76855469 47.42871094 C20.28120686 64.23382976 19.69643285 80.77195034 15 97 C14.80696289 97.70640625 14.61392578 98.4128125 14.41503906 99.140625 C11.57495118 109.36307596 7.40392923 118.95286857 2.9375 128.5625 C2.43089844 129.67641113 1.92429687 130.79032227 1.40234375 131.93798828 C0.90734375 132.97036621 0.41234375 134.00274414 -0.09765625 135.06640625 C-0.75519897 136.4577478 -0.75519897 136.4577478 -1.42602539 137.87719727 C-3 140 -3 140 -5.29052734 140.84326172 C-8.36810686 141.02129434 -11.19229172 140.81271184 -14.25390625 140.44140625 C-15.43791016 140.30283203 -16.62191406 140.16425781 -17.84179688 140.02148438 C-19.68354492 139.79428711 -19.68354492 139.79428711 -21.5625 139.5625 C-24.00108031 139.27027871 -26.43987466 138.97983669 -28.87890625 138.69140625 C-30.49647827 138.49333374 -30.49647827 138.49333374 -32.14672852 138.29125977 C-35.18520373 137.93229899 -35.18520373 137.93229899 -39 138 C-40.32 141.96 -41.64 145.92 -43 150 C-43.66 150 -44.32 150 -45 150 C-48.63 127.89 -52.26 105.78 -56 83 C-61.51623207 114.49717023 -61.51623207 114.49717023 -67 146 C-67.66 146 -68.32 146 -69 146 C-69.85831266 141.92567808 -70.71270274 137.85055931 -71.56347656 133.7746582 C-71.853416 132.38836498 -72.14442379 131.00229474 -72.43652344 129.61645508 C-72.85633299 127.62378763 -73.27228675 125.63034833 -73.6875 123.63671875 C-73.93886719 122.43748779 -74.19023437 121.23825684 -74.44921875 120.00268555 C-75 117 -75 117 -75 114 C-72 115 -72 115 -70 118 C-69.01 117.505 -69.01 117.505 -68 117 C-68.33 118.32 -68.66 119.64 -69 121 C-67.515 120.505 -67.515 120.505 -66 120 C-63.82475746 109.90385631 -63.82475746 109.90385631 -62.375 99.6875 C-62 96 -62 96 -61 94 C-60.96955142 91.46406791 -61.06685017 88.94434952 -61.16015625 86.41015625 C-61 84 -61 84 -59 81 C-58.83300768 77.87478167 -58.83300768 77.87478167 -59 75 C-57.125 75.125 -57.125 75.125 -55 76 C-53.30273706 79.73397847 -52.76009256 82.92157346 -53 87 C-52.34 87 -51.68 87 -51 87 C-50.04738513 91.76307437 -49.91666643 96.1666528 -50 101 C-49.34 101.33 -48.68 101.66 -48 102 C-47.97494385 102.56509277 -47.9498877 103.13018555 -47.92407227 103.71240234 C-47.80820044 106.26683742 -47.68543463 108.8208955 -47.5625 111.375 C-47.52318359 112.26445312 -47.48386719 113.15390625 -47.44335938 114.0703125 C-47.40146484 114.92109375 -47.35957031 115.771875 -47.31640625 116.6484375 C-47.27974854 117.43395996 -47.24309082 118.21948242 -47.20532227 119.02880859 C-47.109109 121.07523496 -47.109109 121.07523496 -46 123 C-45.77141886 125.0374763 -45.58975722 127.08040303 -45.4375 129.125 C-45.31181641 130.76855469 -45.31181641 130.76855469 -45.18359375 132.4453125 C-45.12300781 133.28835937 -45.06242187 134.13140625 -45 135 C-41.2236068 135.2981424 -41.2236068 135.2981424 -39 134 C-39 134.66 -39 135.32 -39 136 C-37.85402344 135.98839844 -36.70804687 135.97679687 -35.52734375 135.96484375 C-33.99739748 135.95545758 -32.46744942 135.94635827 -30.9375 135.9375 C-30.18533203 135.92912109 -29.43316406 135.92074219 -28.65820312 135.91210938 C-24.00245292 135.89195461 -19.60917621 136.25375242 -15 137 C-13.18879284 137.19960242 -11.37635239 137.38856895 -9.5625 137.5625 C-8.69753906 137.64628906 -7.83257812 137.73007813 -6.94140625 137.81640625 C-6.30074219 137.87699219 -5.66007812 137.93757812 -5 138 C-4.84144531 137.443125 -4.68289063 136.88625 -4.51953125 136.3125 C-3.21925907 132.05967606 -1.80066922 128.45397918 0.6875 124.75 C2.71753761 121.71102154 3.58598641 119.75031304 3 116 C2.34 116 1.68 116 1 116 C1 115.34 1 114.68 1 114 C2.98 113.67 4.96 113.34 7 113 C7 110.69 7 108.38 7 106 C7.66 105.67 8.32 105.34 9 105 C9.80591989 102.89157272 9.80591989 102.89157272 10.4375 100.375 C11.26330264 97.30773304 12.18092067 94.60885789 13.51953125 91.71484375 C15.21285673 87.46589248 15.82809372 83.71173247 16.25 79.1875 C16.3329834 78.34670898 16.4159668 77.50591797 16.50146484 76.63964844 C17.46101831 65.10419218 16.68851937 53.53337983 16 42 C15.34 42 14.68 42 14 42 C13.896875 40.906875 13.79375 39.81375 13.6875 38.6875 C12.98423275 34.91543022 12.69352251 34.3568322 10 32 C9.3125 29.8125 9.3125 29.8125 9 28 C9.66 28 10.32 28 11 28 C10.3819713 26.20591668 9.75533919 24.41479522 9.125 22.625 C8.77695312 21.62726563 8.42890625 20.62953125 8.0703125 19.6015625 C6.8264211 16.57808923 5.75425701 15.39931253 2.875 13.875 C1 12 1 12 0.7421875 10.02734375 C0.74928076 8.01640458 0.86841691 6.00664211 1 4 C0.34 4 -0.32 4 -1 4 C-0.67 2.68 -0.34 1.36 0 0 Z " fill="#B860D0" transform="translate(463,103)"/>
<path d="M0 0 C1.65 0 3.3 0 5 0 C4.67 0.598125 4.34 1.19625 4 1.8125 C2.79212012 4.05386471 2.79212012 4.05386471 3 7 C2.01 7.495 2.01 7.495 1 8 C1 10.31 1 12.62 1 15 C0.01 15.495 0.01 15.495 -1 16 C-0.99476318 16.9379541 -0.98952637 17.8759082 -0.98413086 18.84228516 C-0.96702703 22.34229148 -0.95451973 25.84225299 -0.94506836 29.34228516 C-0.94005838 30.85336002 -0.93324856 32.36443009 -0.92456055 33.87548828 C-0.91234824 36.05502512 -0.90673822 38.23449753 -0.90234375 40.4140625 C-0.89710693 41.7232666 -0.89187012 43.0324707 -0.88647461 44.38134766 C-0.99027883 47.69013513 -1.36567632 50.75595018 -2 54 C-1.01 54 -0.02 54 1 54 C0 57 0 57 -1 59 C-0.34 59 0.32 59 1 59 C1.33 59.66 1.66 60.32 2 61 C2.99 61.66 3.98 62.32 5 63 C3.02 63.99 3.02 63.99 1 65 C1.33 65.66 1.66 66.32 2 67 C2.99 67.33 3.98 67.66 5 68 C4.773125 69.010625 4.54625 70.02125 4.3125 71.0625 C4.02027218 74.74457049 4.03261016 75.64566648 5.48046875 78.74609375 C5.98191406 79.81988281 6.48335937 80.89367187 7 82 C6.98952637 81.38068604 6.97905273 80.76137207 6.96826172 80.12329102 C6.92623901 77.26973665 6.90052873 74.41624774 6.875 71.5625 C6.85824219 70.58861328 6.84148438 69.61472656 6.82421875 68.61132812 C6.78274846 62.41151925 7.42400301 56.99995705 9 51 C9.99 51 10.98 51 12 51 C12.12375 50.195625 12.2475 49.39125 12.375 48.5625 C12.684375 47.2940625 12.684375 47.2940625 13 46 C13.99 45.505 13.99 45.505 15 45 C15.144375 44.195625 15.28875 43.39125 15.4375 42.5625 C16 40 16 40 19 38 C19.8573877 38.48968262 20.71477539 38.97936523 21.59814453 39.48388672 C25.24603549 41.10965124 27.47184094 41.33791665 31.4296875 41.2578125 C32.63753906 41.24363281 33.84539062 41.22945312 35.08984375 41.21484375 C36.96349609 41.17037109 36.96349609 41.17037109 38.875 41.125 C52.95880228 40.87637628 52.95880228 40.87637628 57.1015625 41.45703125 C62.55472326 42.21653961 68.00177117 42.36190672 73.5 42.5625 C74.60859375 42.60568359 75.7171875 42.64886719 76.859375 42.69335938 C79.57281506 42.79862214 82.28633417 42.90075846 85 43 C84.67 43.99 84.34 44.98 84 46 C82.75742432 45.84063965 81.51484863 45.6812793 80.23461914 45.51708984 C71.18950589 44.5177236 62.06023963 44.696823 52.97094727 44.64990234 C50.61342536 44.63328746 48.25595494 44.60592573 45.89868164 44.56787109 C42.47255749 44.51299967 39.04759848 44.49122144 35.62109375 44.4765625 C34.57505478 44.45389313 33.52901581 44.43122375 32.45127869 44.40786743 C25.70058136 44.42727397 21.11832127 45.45002039 16 50 C11.41962219 55.00098767 11.39934735 59.53471379 11.390625 65.9921875 C11.37408875 66.93812775 11.35755249 67.88406799 11.34051514 68.8586731 C11.29213685 71.86418212 11.27068662 74.86918552 11.25 77.875 C11.22183184 79.91929613 11.19190323 81.96356881 11.16015625 84.0078125 C11.08638044 89.0051667 11.03674356 94.00224187 11 99 C8.08408812 95.29370376 6.32524174 91.43448245 4.625 87.0625 C4.17036377 85.89497192 4.17036377 85.89497192 3.70654297 84.70385742 C-6.57645009 57.25993268 -8.22353824 28.1388026 0 0 Z " fill="#89B3ED" transform="translate(35,130)"/>
<path d="M0 0 C2.50609898 2.50609898 2.50812528 3.89462679 3.05322266 7.36767578 C3.23325836 8.48868683 3.41329407 9.60969788 3.5987854 10.76467896 C3.78532684 11.97928802 3.97186829 13.19389709 4.1640625 14.4453125 C4.36099701 15.68546112 4.55793152 16.92560974 4.76083374 18.20333862 C5.28288615 21.50029737 5.79782541 24.79820984 6.30938721 28.09680176 C6.83314794 31.46260512 7.36617836 34.82693828 7.8984375 38.19140625 C8.94086245 44.79294592 9.97393768 51.39589848 11 58 C10.08524902 57.67854004 9.17049805 57.35708008 8.22802734 57.02587891 C4.62265419 55.88007812 1.39674026 55.58849473 -2.375 55.375 C-3.62023437 55.30023438 -4.86546875 55.22546875 -6.1484375 55.1484375 C-7.08945313 55.09945312 -8.03046875 55.05046875 -9 55 C-6.5842388 36.5639277 -3.30174009 18.29333823 0 0 Z " fill="#6E18B5" transform="translate(210,216)"/>
<path d="M0 0 C-3.465 1.485 -3.465 1.485 -7 3 C-7 3.66 -7 4.32 -7 5 C-8.27875 5.12375 -9.5575 5.2475 -10.875 5.375 C-14.34790936 5.69042399 -14.34790936 5.69042399 -17 8 C-18.32 8 -19.64 8 -21 8 C-23.88761214 10.1101781 -24.83620352 12.68765616 -26 16 C-29.3 16 -32.6 16 -36 16 C-36 16.66 -36 17.32 -36 18 C-36.66 18 -37.32 18 -38 18 C-38 18.66 -38 19.32 -38 20 C-38.66 20 -39.32 20 -40 20 C-40.495 21.485 -40.495 21.485 -41 23 C-44.0625 24.6875 -44.0625 24.6875 -47 26 C-46.505 27.485 -46.505 27.485 -46 29 C-47.11375 29.391875 -48.2275 29.78375 -49.375 30.1875 C-52.10991191 31.36196822 -52.83463631 31.7143718 -54.375 34.375 C-54.97869009 36.91049839 -55.55956152 39.43077556 -56 42 C-57.65 41.67 -59.3 41.34 -61 41 C-61.33 43.31 -61.66 45.62 -62 48 C-63.32 48 -64.64 48 -66 48 C-66.28875 48.763125 -66.5775 49.52625 -66.875 50.3125 C-68 53 -68 53 -70 56 C-70.66 56 -71.32 56 -72 56 C-72.226875 56.94875 -72.45375 57.8975 -72.6875 58.875 C-74.10005581 63.89627504 -76.57723367 68.40414173 -79 73 C-79.66 73 -80.32 73 -81 73 C-80.53059092 66.82356474 -78.48690029 62.29171222 -75.5625 56.875 C-74.88815918 55.61876831 -74.88815918 55.61876831 -74.20019531 54.3371582 C-60.4177635 29.28015857 -37.89258242 9.81718839 -11 0 C-3.83883249 -1.3819797 -3.83883249 -1.3819797 0 0 Z " fill="#356ACD" transform="translate(118,56)"/>
<path d="M0 0 C11.52574472 9.59285586 17.05981012 33.52327368 18.76855469 47.42871094 C20.28120686 64.23382976 19.69643285 80.77195034 15 97 C14.80696289 97.70640625 14.61392578 98.4128125 14.41503906 99.140625 C11.57495118 109.36307596 7.40392923 118.95286857 2.9375 128.5625 C2.43089844 129.67641113 1.92429687 130.79032227 1.40234375 131.93798828 C0.90734375 132.97036621 0.41234375 134.00274414 -0.09765625 135.06640625 C-0.53601807 135.99396729 -0.97437988 136.92152832 -1.42602539 137.87719727 C-3 140 -3 140 -5.52783203 140.81591797 C-8.05392778 141.00401556 -10.30389708 140.89947651 -12.8125 140.5625 C-13.60269531 140.46066406 -14.39289063 140.35882813 -15.20703125 140.25390625 C-15.79871094 140.17011719 -16.39039063 140.08632812 -17 140 C-17 139.67 -17 139.34 -17 139 C-12.71 139 -8.42 139 -4 139 C-3.95875 137.700625 -3.9175 136.40125 -3.875 135.0625 C-3.36169253 130.04788085 -1.35027926 127.04506071 1.72265625 123.140625 C3.25407268 120.5742146 3.24144399 118.93842469 3 116 C2.34 116 1.68 116 1 116 C1 115.34 1 114.68 1 114 C3.97 113.505 3.97 113.505 7 113 C7 110.69 7 108.38 7 106 C7.99 105.505 7.99 105.505 9 105 C9.80591989 102.89157272 9.80591989 102.89157272 10.4375 100.375 C11.26330264 97.30773304 12.18092067 94.60885789 13.51953125 91.71484375 C15.21285673 87.46589248 15.82809372 83.71173247 16.25 79.1875 C16.3329834 78.34670898 16.4159668 77.50591797 16.50146484 76.63964844 C17.46101831 65.10419218 16.68851937 53.53337983 16 42 C15.34 42 14.68 42 14 42 C13.896875 40.906875 13.79375 39.81375 13.6875 38.6875 C12.98423275 34.91543022 12.69352251 34.3568322 10 32 C9.3125 29.8125 9.3125 29.8125 9 28 C9.66 28 10.32 28 11 28 C10.3819713 26.20591668 9.75533919 24.41479522 9.125 22.625 C8.77695312 21.62726563 8.42890625 20.62953125 8.0703125 19.6015625 C6.8264211 16.57808923 5.75425701 15.39931253 2.875 13.875 C1 12 1 12 0.7421875 10.02734375 C0.74928076 8.01640458 0.86841691 6.00664211 1 4 C0.34 4 -0.32 4 -1 4 C-0.67 2.68 -0.34 1.36 0 0 Z " fill="#D18EE2" transform="translate(463,103)"/>
<path d="M0 0 C0.495 1.98 0.495 1.98 1 4 C0.21625 4.226875 -0.5675 4.45375 -1.375 4.6875 C-4.2197245 5.74653828 -4.2197245 5.74653828 -5 8.5 C-6 11 -6 11 -8.625 12.3125 C-9.40875 12.539375 -10.1925 12.76625 -11 13 C-11.495 12.01 -11.495 12.01 -12 11 C-16.80549747 10.97531553 -21.61095818 10.95714745 -26.41650391 10.94506836 C-28.05192711 10.94003379 -29.6873458 10.93320573 -31.32275391 10.92456055 C-33.67090975 10.91245665 -36.01900619 10.906763 -38.3671875 10.90234375 C-39.10057343 10.89718246 -39.83395935 10.89202118 -40.58956909 10.88670349 C-44.42122656 10.816844 -44.42122656 10.816844 -48 12 C-47.67 12.99 -47.34 13.98 -47 15 C-46.34 15 -45.68 15 -45 15 C-44.01 16.485 -44.01 16.485 -43 18 C-42.34 18 -41.68 18 -41 18 C-40.67 18.66 -40.34 19.32 -40 20 C-39.01 20 -38.02 20 -37 20 C-36.195625 20.825 -35.39125 21.65 -34.5625 22.5 C-32.11947885 25.46554923 -32.11947885 25.46554923 -28 25 C-25.8125 25.75 -25.8125 25.75 -24 27 C-23.375 28.9375 -23.375 28.9375 -23 31 C-22.34 31.99 -21.68 32.98 -21 34 C-21 35.32 -21 36.64 -21 38 C-19.68 38.66 -18.36 39.32 -17 40 C-20.76300724 40 -21.51593311 39.05739099 -24.375 36.6875 C-25.26058594 35.95789063 -26.14617187 35.22828125 -27.05859375 34.4765625 C-34.78359805 27.97237561 -34.78359805 27.97237561 -38.08886719 25.15478516 C-42.57371674 21.33509535 -47.14346022 17.63538395 -51.7578125 13.97265625 C-53.87097301 12.11351678 -55.35725931 10.26710013 -57 8 C-56.1810022 7.99120064 -56.1810022 7.99120064 -55.34545898 7.98222351 C-49.63443333 7.91801676 -43.92395704 7.83352861 -38.21337891 7.73754883 C-36.08552316 7.70440718 -33.95758177 7.67634213 -31.82958984 7.65356445 C-28.76102392 7.61982028 -25.69323518 7.56749432 -22.625 7.51171875 C-21.68197021 7.50532883 -20.73894043 7.4989389 -19.76733398 7.49235535 C-12.86480621 7.34060011 -6.88336813 6.52294711 -1.5 1.8125 C-1.005 1.214375 -0.51 0.61625 0 0 Z M-38 21 C-37 23 -37 23 -37 23 Z " fill="#773FB3" transform="translate(225,369)"/>
<path d="M0 0 C22.06348446 3.09142872 43.21157491 24.35462649 56.015625 41.12890625 C58 44 58 44 58 46 C55 47 55 47 52 47 C51.48515379 44.94061515 50.97892115 42.89460574 50.5625 40.8125 C50.2840625 39.9153125 50.2840625 39.9153125 50 39 C47.50907189 37.75453595 46.58919267 38.2232422 44 39 C43.896875 37.88625 43.79375 36.7725 43.6875 35.625 C43.460625 34.42875 43.23375 33.2325 43 32 C40.21885944 29.66608797 40.21885944 29.66608797 37.3125 30.375 C36.1678125 30.684375 36.1678125 30.684375 35 31 C35 28.36 35 25.72 35 23 C31.98968256 22.06576355 31.13349732 21.95550089 28 23 C27.67 21.02 27.34 19.04 27 17 C26.34 17 25.68 17 25 17 C25 16.01 25 15.02 25 14 C23.35 14.33 21.7 14.66 20 15 C19.34 14.01 18.68 13.02 18 12 C17.34 12 16.68 12 16 12 C15.67 12.66 15.34 13.32 15 14 C13.68 14 12.36 14 11 14 C11 11.36 11 8.72 11 6 C8.03 5.67 5.06 5.34 2 5 C1.34 3.35 0.68 1.7 0 0 Z " fill="#C781DB" transform="translate(405,57)"/>
<path d="M0 0 C0.86753906 0.49242187 1.73507813 0.98484375 2.62890625 1.4921875 C8.44697697 3.98209355 14.73459222 3.27322533 20.9375 3.125 C34.95564709 2.87663262 34.95564709 2.87663262 39.09765625 3.45703125 C44.55221339 4.21597363 50.0004585 4.36185883 55.5 4.5625 C56.60859375 4.60568359 57.7171875 4.64886719 58.859375 4.69335938 C61.57281506 4.79862214 64.28633417 4.90075846 67 5 C66.67 5.99 66.34 6.98 66 8 C64.75742432 7.84063965 63.51484863 7.6812793 62.23461914 7.51708984 C53.18950589 6.5177236 44.06023963 6.696823 34.97094727 6.64990234 C32.61342536 6.63328746 30.25595494 6.60592573 27.89868164 6.56787109 C24.47255749 6.51299967 21.04759848 6.49122144 17.62109375 6.4765625 C16.57505478 6.45389313 15.52901581 6.43122375 14.45127869 6.40786743 C6.09168639 6.43189913 0.93722037 8.89735472 -4.94921875 14.75390625 C-8.80133168 20.70717169 -7.78861736 29.08897283 -7.8125 35.9375 C-7.83566635 37.49547737 -7.86103612 39.05342362 -7.88867188 40.61132812 C-7.95124763 44.40766814 -7.98380011 48.20319039 -8 52 C-10.94201695 48.73417157 -11.37611436 46.59078497 -11.36328125 42.23828125 C-11.36263672 41.11873047 -11.36199219 39.99917969 -11.36132812 38.84570312 C-11.34521484 37.67974609 -11.32910156 36.51378906 -11.3125 35.3125 C-11.31572266 34.16587891 -11.31894531 33.01925781 -11.32226562 31.83789062 C-11.28079663 25.25186015 -10.70134764 19.36480253 -9 13 C-8.01 13 -7.02 13 -6 13 C-5.814375 11.7934375 -5.814375 11.7934375 -5.625 10.5625 C-5.41875 9.716875 -5.2125 8.87125 -5 8 C-4.34 7.67 -3.68 7.34 -3 7 C-2.65846063 5.33499557 -2.32550502 3.66821323 -2 2 C-1.34 1.34 -0.68 0.68 0 0 Z " fill="#204BC1" transform="translate(53,168)"/>
<path d="M0 0 C0.99 0.33 1.98 0.66 3 1 C3 1.99 3 2.98 3 4 C3.66 4.33 4.32 4.66 5 5 C5.02505615 5.56509277 5.0501123 6.13018555 5.07592773 6.71240234 C5.19179956 9.26683742 5.31456537 11.8208955 5.4375 14.375 C5.47681641 15.26445312 5.51613281 16.15390625 5.55664062 17.0703125 C5.59853516 17.92109375 5.64042969 18.771875 5.68359375 19.6484375 C5.72025146 20.43395996 5.75690918 21.21948242 5.79467773 22.02880859 C5.890891 24.07523496 5.890891 24.07523496 7 26 C7.22858114 28.0374763 7.41024278 30.08040303 7.5625 32.125 C7.64628906 33.22070312 7.73007812 34.31640625 7.81640625 35.4453125 C7.87699219 36.28835937 7.93757813 37.13140625 8 38 C11.7763932 38.2981424 11.7763932 38.2981424 14 37 C14 37.66 14 38.32 14 39 C15.14597656 38.98839844 16.29195313 38.97679687 17.47265625 38.96484375 C19.00260252 38.95545758 20.53255058 38.94635827 22.0625 38.9375 C22.81466797 38.92912109 23.56683594 38.92074219 24.34179688 38.91210938 C28.99754708 38.89195461 33.39082379 39.25375242 38 40 C39.81120716 40.19960242 41.62364761 40.38856895 43.4375 40.5625 C44.30246094 40.64628906 45.16742188 40.73007813 46.05859375 40.81640625 C47.01958984 40.90728516 47.01958984 40.90728516 48 41 C48.495 40.01 48.495 40.01 49 39 C49 39.99 49 40.98 49 42 C37.27439869 42.10262072 25.68035238 42.13954657 14 41 C12.68 44.96 11.36 48.92 10 53 C9.34 53 8.68 53 8 53 C6.85495407 46.25657459 5.71628628 39.51209449 4.58203125 32.7668457 C4.19547701 30.4726528 3.80746719 28.17870465 3.41796875 25.88500977 C2.85814028 22.58673465 2.30356446 19.28761271 1.75 15.98828125 C1.57500977 14.96414627 1.40001953 13.94001129 1.21972656 12.88484192 C1.05956055 11.92422348 0.89939453 10.96360504 0.734375 9.97387695 C0.59225586 9.13226517 0.45013672 8.29065338 0.30371094 7.42353821 C-0.00958577 4.92350792 -0.05276991 2.51686856 0 0 Z " fill="#BB67D2" transform="translate(410,200)"/>
<path d="M0 0 C-2.31 0.99 -4.62 1.98 -7 3 C-7 3.66 -7 4.32 -7 5 C-8.27875 5.12375 -9.5575 5.2475 -10.875 5.375 C-14.34790936 5.69042399 -14.34790936 5.69042399 -17 8 C-18.32 8 -19.64 8 -21 8 C-23.88761214 10.1101781 -24.83620352 12.68765616 -26 16 C-29.3 16 -32.6 16 -36 16 C-36 16.66 -36 17.32 -36 18 C-36.66 18 -37.32 18 -38 18 C-38 18.66 -38 19.32 -38 20 C-38.66 20 -39.32 20 -40 20 C-40.33 20.99 -40.66 21.98 -41 23 C-43.89558441 24.4477922 -45.74188938 25 -49 25 C-45.21854233 15.14596619 -28.70909882 7.71059304 -19.82421875 3.4921875 C-6.46906491 -2.32886337 -6.46906491 -2.32886337 0 0 Z " fill="#4756C6" transform="translate(118,56)"/>
<path d="M0 0 C0.99 0 1.98 0 3 0 C1.41931641 4.27762311 -0.64518239 8.22107722 -2.875 12.1875 C-3.21402344 12.81591797 -3.55304688 13.44433594 -3.90234375 14.09179688 C-5.8318129 17.52155668 -7.1667924 19.81335975 -11 21 C-26.52168941 24.83895219 -42.32693238 22.58693239 -58 21 C-58.66 21.99 -59.32 22.98 -60 24 C-60.33 22.35 -60.66 20.7 -61 19 C-56.68234972 17.87874973 -52.65178912 18.03574843 -48.25 18.375 C-47.56550781 18.41882813 -46.88101562 18.46265625 -46.17578125 18.5078125 C-41.13267924 18.86732076 -41.13267924 18.86732076 -40 20 C-37.36424457 20.10024126 -34.76045755 20.13875021 -32.125 20.125 C-31.39152344 20.12886719 -30.65804688 20.13273437 -29.90234375 20.13671875 C-26.67566762 20.13084138 -24.08156579 20.0271886 -21 19 C-19.43881572 18.93259135 -17.8749748 18.91485544 -16.3125 18.9375 C-15.10013672 18.95103516 -15.10013672 18.95103516 -13.86328125 18.96484375 C-13.24839844 18.97644531 -12.63351562 18.98804688 -12 19 C-11.505 17.515 -11.505 17.515 -11 16 C-10.34 15.01 -9.68 14.02 -9 13 C-8.67 12.01 -8.34 11.02 -8 10 C-7.34 10 -6.68 10 -6 10 C-6 9.34 -6 8.68 -6 8 C-6.66 8 -7.32 8 -8 8 C-8 6.68 -8 5.36 -8 4 C-6.68 4 -5.36 4 -4 4 C-3.01 3.67 -2.02 3.34 -1 3 C-0.67 2.01 -0.34 1.02 0 0 Z " fill="#B260C9" transform="translate(384,220)"/>
<path d="M0 0 C0.99 0 1.98 0 3 0 C3.3828125 2.1015625 3.3828125 2.1015625 3 5 C1.22562463 7.40135221 -0.93609752 9.35433817 -3.125 11.375 C-4.3312547 12.52934322 -5.53570857 13.68557143 -6.73828125 14.84375 C-7.31143066 15.39160156 -7.88458008 15.93945312 -8.47509766 16.50390625 C-10.20874939 18.20480568 -11.78262364 19.9894381 -13.3125 21.875 C-15.79955599 24.88872668 -18.59809644 27.31011638 -21.578125 29.828125 C-25.40030219 33.25575487 -28.95643692 36.95072468 -32.51977539 40.64501953 C-36.67810498 44.89270166 -36.67810498 44.89270166 -40 46 C-40.66 44.35 -41.32 42.7 -42 41 C-40.906875 40.814375 -39.81375 40.62875 -38.6875 40.4375 C-35.0509502 39.42483472 -35.0509502 39.42483472 -33.8671875 37.30859375 C-32.94073788 35.16349857 -32.94073788 35.16349857 -32 32 C-31.01 32 -30.02 32 -29 32 C-25.9890638 29.9927092 -25.36983503 29.16115776 -24 26 C-23.34 26 -22.68 26 -22 26 C-22 25.34 -22 24.68 -22 24 C-20.68 23.67 -19.36 23.34 -18 23 C-18 22.34 -18 21.68 -18 21 C-17.34 21 -16.68 21 -16 21 C-15.938125 20.21625 -15.87625 19.4325 -15.8125 18.625 C-15.544375 17.75875 -15.27625 16.8925 -15 16 C-12.4375 14.6875 -12.4375 14.6875 -10 14 C-10 13.01 -10 12.02 -10 11 C-9.01 11 -8.02 11 -7 11 C-6.67 10.34 -6.34 9.68 -6 9 C-5.175 8.401875 -4.35 7.80375 -3.5 7.1875 C-0.70868088 4.74509577 -0.30105065 3.61260785 0 0 Z " fill="#B560CD" transform="translate(394,321)"/>
<path d="M0 0 C0.33 0 0.66 0 1 0 C1.24933861 7.41003171 0.30000049 14.2763486 -1 21.5625 C-1.19078125 22.66658203 -1.3815625 23.77066406 -1.578125 24.90820312 C-2.04539889 27.60670984 -2.51948722 30.3038249 -3 33 C-3.66 33 -4.32 33 -5 33 C-6.77967263 24.95969329 -8.43630637 17.28982104 -8 9 C-6.35 8.67 -4.7 8.34 -3 8 C-3.66 8 -4.32 8 -5 8 C-4.67 6.68 -4.34 5.36 -4 4 C-3.01 4 -2.02 4 -1 4 C-0.67 2.68 -0.34 1.36 0 0 Z " fill="#783AB7" transform="translate(203,216)"/>
<path d="M0 0 C1.65 0 3.3 0 5 0 C4.67 0.598125 4.34 1.19625 4 1.8125 C2.79212012 4.05386471 2.79212012 4.05386471 3 7 C2.01 7.495 2.01 7.495 1 8 C1 10.31 1 12.62 1 15 C0.01 15.495 0.01 15.495 -1 16 C-0.97643433 17.43049683 -0.97643433 17.43049683 -0.95239258 18.88989258 C-0.89808322 22.42886913 -0.86364667 25.96780886 -0.83520508 29.50708008 C-0.82012064 31.03871861 -0.79965022 32.57031398 -0.77368164 34.10180664 C-0.73728153 36.30365654 -0.72027087 38.50493533 -0.70703125 40.70703125 C-0.69154739 41.39150833 -0.67606354 42.07598541 -0.66011047 42.78120422 C-0.65841969 47.55999359 -0.65841969 47.55999359 -2.51831055 49.95581055 C-3.25174683 50.47268433 -3.25174683 50.47268433 -4 51 C-10.62467015 37.7506597 -3.96699702 13.57402895 0 0 Z " fill="#4481CF" transform="translate(35,130)"/>
<path d="M0 0 C2 1 2 1 2.61010742 2.79418945 C3.14507498 5.29870241 3.67816848 7.80261724 4.1875 10.3125 C4.37763672 11.18068359 4.56777344 12.04886719 4.76367188 12.94335938 C4.93833984 13.78318359 5.11300781 14.62300781 5.29296875 15.48828125 C5.4530542 16.25696533 5.61313965 17.02564941 5.77807617 17.81762695 C6.01491961 20.14671769 5.70251314 21.78215121 5 24 C4.34 22.02 3.68 20.04 3 18 C2.01 18 1.02 18 0 18 C0 14.7 0 11.4 0 8 C-0.99 9.32 -1.98 10.64 -3 12 C-5.33488464 12.48101807 -5.33488464 12.48101807 -8.11401367 12.45410156 C-9.15486618 12.45379944 -10.19571869 12.45349731 -11.26811218 12.45318604 C-12.39006485 12.43254089 -13.51201752 12.41189575 -14.66796875 12.390625 C-15.81791824 12.38496521 -16.96786774 12.37930542 -18.15266418 12.37347412 C-21.8313634 12.35105474 -25.50909437 12.3008458 -29.1875 12.25 C-31.67902241 12.2299423 -34.17056006 12.21169026 -36.66210938 12.1953125 C-42.77507084 12.15117166 -48.88746626 12.08420349 -55 12 C-55 13.65 -55 15.3 -55 17 C-55.66 16.67 -56.32 16.34 -57 16 C-56.67 14.35 -56.34 12.7 -56 11 C-55.08037979 11.01451706 -55.08037979 11.01451706 -54.1421814 11.02932739 C-47.74992647 11.12039907 -41.36013963 11.14140266 -34.96728516 11.12207031 C-32.58308868 11.12401474 -30.19883698 11.14371278 -27.81494141 11.18164062 C-24.38274981 11.23314496 -20.95581985 11.22039067 -17.5234375 11.1953125 C-16.46071625 11.22505157 -15.397995 11.25479065 -14.30307007 11.28543091 C-11.22140555 11.22609596 -8.88845985 11.08750474 -6 10 C-3.29445192 6.95193255 -1.58176384 3.7400445 0 0 Z " fill="#BE78D0" transform="translate(385,234)"/>
<path d="M0 0 C8.58 0 17.16 0 26 0 C25.03019118 5.81885291 24.63198538 6.92777397 21 11 C20.01 12.485 20.01 12.485 19 14 C18.34 14 17.68 14 17 14 C17 15.32 17 16.64 17 18 C16.34 18 15.68 18 15 18 C14.67 18.99 14.34 19.98 14 21 C12.12627017 18.29350136 11.96952643 17.19045979 12.5 13.875 C14 11 14 11 17.125 9.625 C18.07375 9.41875 19.0225 9.2125 20 9 C20 8.21625 20 7.4325 20 6.625 C20 5.08333333 20 3.54166667 20 2 C17.54137599 1.94616152 15.0839245 1.90640962 12.625 1.875 C11.92632812 1.85824219 11.22765625 1.84148437 10.5078125 1.82421875 C8.67102514 1.80655733 6.83398037 1.89696739 5 2 C4.34 2.66 3.68 3.32 3 4 C3 5.32 3 6.64 3 8 C1.02 8.99 -0.96 9.98 -3 11 C-2.50639991 6.72213252 -1.95216435 3.90432869 0 0 Z " fill="#BE5CDB" transform="translate(428,246)"/>
<path d="M0 0 C0.15366997 6.39651259 -0.35153626 12.27698902 -1.5 18.5625 C-1.64308594 19.38041016 -1.78617187 20.19832031 -1.93359375 21.04101562 C-2.28228312 23.02854504 -2.64016085 25.01445896 -3 27 C-3.66 26.67 -4.32 26.34 -5 26 C-5.65117579 23.63127339 -6.17515074 21.34541515 -6.625 18.9375 C-6.75688721 18.2580835 -6.88877441 17.57866699 -7.0246582 16.87866211 C-7.89883819 12.15063109 -8.29307021 7.7868135 -8 3 C-6 4 -6 4 -4 6 C-4 4.35 -4 2.7 -4 1 C-2 0 -2 0 0 0 Z " fill="#8F18AF" transform="translate(301,223)"/>
<path d="M0 0 C0.99 0 1.98 0 3 0 C3.33 1.65 3.66 3.3 4 5 C3.01 5.495 3.01 5.495 2 6 C2 7.32 2 8.64 2 10 C0.35 10.33 -1.3 10.66 -3 11 C-4.81602517 15.53832753 -4.81602517 15.53832753 -4 20 C-5.32 21.32 -6.64 22.64 -8 24 C-7.34 24.66 -6.68 25.32 -6 26 C-8.76264289 26.59732819 -11.16032769 27 -14 27 C-14 26.34 -14 25.68 -14 25 C-13.34 24.67 -12.68 24.34 -12 24 C-11.21016177 22.06534007 -10.49350062 20.10059906 -9.8125 18.125 C-7.38968479 11.61862681 -4.51722655 5.34145983 0 0 Z " fill="#962FB1" transform="translate(268,101)"/>
<path d="M0 0 C-0.33 1.98 -0.66 3.96 -1 6 C-3.475 5.505 -3.475 5.505 -6 5 C-6 5.66 -6 6.32 -6 7 C-6.99 7.33 -7.98 7.66 -9 8 C-9.60061233 9.90178785 -9.60061233 9.90178785 -10 12 C-10.99 13.485 -10.99 13.485 -12 15 C-12.66 14.01 -13.32 13.02 -14 12 C-14.99 13.485 -14.99 13.485 -16 15 C-16.433125 14.34 -16.86625 13.68 -17.3125 13 C-18.1478125 12.01 -18.1478125 12.01 -19 11 C-19.99 11 -20.98 11 -22 11 C-20.06324055 9.54067427 -18.12562712 8.08250736 -16.1875 6.625 C-15.64029297 6.2125 -15.09308594 5.8 -14.52929688 5.375 C-9.2510939 1.40835049 -6.71398801 -0.25335804 0 0 Z " fill="#A032BE" transform="translate(313,65)"/>
<path d="M0 0 C10.23 0 20.46 0 31 0 C25.375 11.25 25.375 11.25 22.66796875 15.1328125 C22.09755859 15.9578125 21.52714844 16.7828125 20.93945312 17.6328125 C20.07223633 18.86644531 20.07223633 18.86644531 19.1875 20.125 C18.59001953 20.98609375 17.99253906 21.8471875 17.37695312 22.734375 C15.92372082 24.82702952 14.4647445 26.91539541 13 29 C12 26 12 26 12.77734375 24.17578125 C13.8515625 22.45052083 14.92578125 20.72526042 16 19 C16.66 19 17.32 19 18 19 C18 17.68 18 16.36 18 15 C19.31129922 13.64499081 20.64691687 12.31328657 22 11 C23.15521502 8.52869082 23.15521502 8.52869082 24 6 C24.66 4.68 25.32 3.36 26 2 C17.75 1.67 9.5 1.34 1 1 C1 3.31 1 5.62 1 8 C0.34 7.01 -0.32 6.02 -1 5 C-0.67 3.35 -0.34 1.7 0 0 Z " fill="#C88BD8" transform="translate(427,245)"/>
<path d="M0 0 C1.28648437 -0.020625 2.57296875 -0.04125 3.8984375 -0.0625 C12.88353288 -0.09865733 20.8090752 1.01490181 29.5 3.25 C28.84 3.91 28.18 4.57 27.5 5.25 C24.8984375 5.2265625 24.8984375 5.2265625 21.875 4.875 C20.87210937 4.76414062 19.86921875 4.65328125 18.8359375 4.5390625 C18.06507813 4.44367187 17.29421875 4.34828125 16.5 4.25 C16.17 4.91 15.84 5.57 15.5 6.25 C13.19 5.59 10.88 4.93 8.5 4.25 C8.5 3.59 8.5 2.93 8.5 2.25 C4.35906302 2.04029441 4.35906302 2.04029441 0.5 3.25 C-0.16 2.92 -0.82 2.59 -1.5 2.25 C-3.5374763 2.02141886 -5.58040303 1.83975722 -7.625 1.6875 C-9.26855469 1.56181641 -9.26855469 1.56181641 -10.9453125 1.43359375 C-11.78835938 1.37300781 -12.63140625 1.31242187 -13.5 1.25 C-13.5 1.91 -13.5 2.57 -13.5 3.25 C-15.81 2.92 -18.12 2.59 -20.5 2.25 C-20.5 1.92 -20.5 1.59 -20.5 1.25 C-13.66391025 -0.03919455 -6.93694597 0.02715047 0 0 Z " fill="#AA3DC7" transform="translate(365.5,49.75)"/>
<path d="M0 0 C-0.35587439 7.50364938 -2.39781898 12.56487436 -6.0625 19.0625 C-6.53494141 19.92810547 -7.00738281 20.79371094 -7.49414062 21.68554688 C-8.64941659 23.79771809 -9.82285461 25.89993844 -11 28 C-15.29 27.67 -19.58 27.34 -24 27 C-24 26.67 -24 26.34 -24 26 C-19.71 26 -15.42 26 -11 26 C-10.95875 24.700625 -10.9175 23.40125 -10.875 22.0625 C-10.36169253 17.04788085 -8.35027926 14.04506071 -5.27734375 10.140625 C-3.74592732 7.5742146 -3.75855601 5.93842469 -4 3 C-4.66 3 -5.32 3 -6 3 C-6 2.34 -6 1.68 -6 1 C-3.92446352 0.4465236 -2.15634036 0 0 0 Z " fill="#CB88DE" transform="translate(470,216)"/>
<path d="M0 0 C0.66022156 0.0028299 1.32044312 0.00565979 2.00067139 0.00857544 C4.09959397 0.01972835 6.19808242 0.04482304 8.296875 0.0703125 C9.72395215 0.08034866 11.15103602 0.0894734 12.578125 0.09765625 C16.06784828 0.11965139 19.55731923 0.15414714 23.046875 0.1953125 C23.046875 1.1853125 23.046875 2.1753125 23.046875 3.1953125 C21.90347656 3.18371094 20.76007813 3.17210937 19.58203125 3.16015625 C18.09114746 3.15077962 16.60026191 3.14167929 15.109375 3.1328125 C14.35462891 3.12443359 13.59988281 3.11605469 12.82226562 3.10742188 C10.89693187 3.09878809 8.97151919 3.14306917 7.046875 3.1953125 C6.716875 3.5253125 6.386875 3.8553125 6.046875 4.1953125 C3.18419933 4.26856418 0.346156 4.28769455 -2.515625 4.2578125 C-3.32193359 4.25330078 -4.12824219 4.24878906 -4.95898438 4.24414062 C-6.95706256 4.23231768 -8.95510283 4.21438164 -10.953125 4.1953125 C-10.953125 3.5353125 -10.953125 2.8753125 -10.953125 2.1953125 C-7.31095805 -0.10291075 -4.24487493 -0.03597352 0 0 Z " fill="#6953C0" transform="translate(138.953125,49.8046875)"/>
<path d="M0 0 C0.99 0 1.98 0 3 0 C3.3828125 2.1015625 3.3828125 2.1015625 3 5 C1.22565344 7.40131322 -0.93590845 9.35459605 -3.125 11.375 C-4.32353795 12.52012572 -5.52017758 13.66724182 -6.71484375 14.81640625 C-7.28702637 15.36312988 -7.85920898 15.90985352 -8.44873047 16.47314453 C-10.32499378 18.31987898 -12.02372635 20.27343905 -13.6875 22.3125 C-14.450625 23.199375 -15.21375 24.08625 -16 25 C-16.66 25 -17.32 25 -18 25 C-18 23.68 -18 22.36 -18 21 C-17.34 21 -16.68 21 -16 21 C-15.938125 20.21625 -15.87625 19.4325 -15.8125 18.625 C-15.544375 17.75875 -15.27625 16.8925 -15 16 C-12.4375 14.6875 -12.4375 14.6875 -10 14 C-10 13.01 -10 12.02 -10 11 C-9.01 11 -8.02 11 -7 11 C-6.67 10.34 -6.34 9.68 -6 9 C-5.175 8.401875 -4.35 7.80375 -3.5 7.1875 C-0.70868088 4.74509577 -0.30105065 3.61260785 0 0 Z " fill="#B560CD" transform="translate(394,321)"/>
<path d="M0 0 C2.23497313 2.23497313 2.37662947 2.97897623 2.88671875 5.9921875 C3.0868457 7.17361328 3.0868457 7.17361328 3.29101562 8.37890625 C3.42185547 9.20261719 3.55269531 10.02632812 3.6875 10.875 C3.90116211 12.09896484 3.90116211 12.09896484 4.11914062 13.34765625 C4.24869141 14.13785156 4.37824219 14.92804688 4.51171875 15.7421875 C4.62990967 16.4626123 4.74810059 17.18303711 4.86987305 17.92529297 C5 20 5 20 4 24 C2.68 21.03 1.36 18.06 0 15 C-0.33 17.97 -0.66 20.94 -1 24 C-1.66 24 -2.32 24 -3 24 C-3.33 24.66 -3.66 25.32 -4 26 C-2.98074847 17.26046032 -1.94183957 8.59367299 0 0 Z " fill="#A44ABC" transform="translate(308,216)"/>
<path d="M0 0 C1 2 1 2 1.3125 3.8125 C2.24246193 6.77146979 3.99456422 8.67110683 6 11 C5.01 13.31 4.02 15.62 3 18 C0 18 0 18 -2.25 16 C-4.31701142 12.45655185 -4.27455872 10.85382296 -3.5625 6.9375 C-2.80037119 4.31238964 -1.58903672 2.2108337 0 0 Z " fill="#740FAF" transform="translate(226,263)"/>
<path d="M0 0 C0.66 0.99 1.32 1.98 2 3 C-1.66666667 6.66666667 -5.33333333 10.33333333 -9 14 C-9.4021875 15.2065625 -9.4021875 15.2065625 -9.8125 16.4375 C-11.28960796 19.62494348 -12.91275861 20.45637931 -16 22 C-16.14680231 15.24709376 -12.90284244 12.0655186 -8.3671875 7.3125 C-5.68361528 4.6909245 -2.97239436 2.2864572 0 0 Z " fill="#9625B5" transform="translate(290,77)"/>
<path d="M0 0 C1.1875 1.5625 1.1875 1.5625 2 4 C1.00522247 6.33556463 0.00484883 8.66875071 -1 11 C-0.79653753 14.32224191 -0.79653753 14.32224191 0 17 C-0.66 17 -1.32 17 -2 17 C-2.90355269 21.00144764 -3.26259284 24.92744048 -3.5234375 29.01171875 C-4 31 -4 31 -7 33 C-6.56159185 26.13664489 -5.68563274 19.35356229 -4.625 12.5625 C-4.4542395 11.39098389 -4.4542395 11.39098389 -4.2800293 10.19580078 C-3.60836657 6.05828669 -2.99729084 3.13962029 0 0 Z " fill="#C178D2" transform="translate(405,234)"/>
<path d="M0 0 C4.45262275 0.63608896 8.20024663 2.32512293 12.1875 4.3125 C12.81591797 4.60833984 13.44433594 4.90417969 14.09179688 5.20898438 C16.75399443 6.52727044 18.72271447 7.6193692 20.48828125 10.04296875 C21 12 21 12 20 15 C19.34 14.01 18.68 13.02 18 12 C17.34 12 16.68 12 16 12 C15.67 12.66 15.34 13.32 15 14 C13.68 14 12.36 14 11 14 C11 11.36 11 8.72 11 6 C8.03 5.67 5.06 5.34 2 5 C1.34 3.35 0.68 1.7 0 0 Z " fill="#B85FD4" transform="translate(405,57)"/>
<path d="M0 0 C0.99 0 1.98 0 3 0 C3 0.66 3 1.32 3 2 C2.34 2 1.68 2 1 2 C1 14.21 1 26.42 1 39 C-2.1430197 34.80930706 -2.37771628 34.13409819 -2.36328125 29.23828125 C-2.36263672 28.11873047 -2.36199219 26.99917969 -2.36132812 25.84570312 C-2.34521484 24.67974609 -2.32910156 23.51378906 -2.3125 22.3125 C-2.31572266 21.16587891 -2.31894531 20.01925781 -2.32226562 18.83789062 C-2.28079663 12.25186015 -1.70134764 6.36480253 0 0 Z " fill="#1553C0" transform="translate(44,181)"/>
<path d="M0 0 C2.36650436 3.68474688 2.14402306 6.69778241 1.94140625 10.99609375 C1.91400864 11.66665298 1.88661102 12.33721222 1.85838318 13.02809143 C1.76990308 15.16514602 1.66725668 17.30118621 1.5625 19.4375 C1.46296058 21.5702465 1.36662973 23.70299634 1.27732849 25.8361969 C1.19548484 27.77450039 1.10302514 29.71234698 1.01000977 31.65014648 C1.00102898 34.65564255 1.15914355 37.12291087 2 40 C2.66 40.66 3.32 41.32 4 42 C2.35 42 0.7 42 -1 42 C-1.02477057 36.82218777 -1.04289347 31.64441025 -1.05493164 26.46655273 C-1.0599517 24.70612995 -1.0667691 22.94571132 -1.07543945 21.18530273 C-1.08760703 18.65086846 -1.09325166 16.11648946 -1.09765625 13.58203125 C-1.10281754 12.79850784 -1.10797882 12.01498444 -1.11329651 11.2077179 C-1.11369066 7.34408861 -0.9444276 3.754835 0 0 Z " fill="#4334B1" transform="translate(136,199)"/>
<path d="M0 0 C0.99 0 1.98 0 3 0 C3 1.65 3 3.3 3 5 C3.66 5.33 4.32 5.66 5 6 C4.52949219 6.51949219 4.05898437 7.03898437 3.57421875 7.57421875 C0.32559823 11.21294277 -2.69660472 14.66419713 -5 19 C-5.99 18.67 -6.98 18.34 -8 18 C-7.50233954 14.31731261 -6.93714041 12.34971233 -4 10 C-3.34 9.67 -2.68 9.34 -2 9 C-1.31270746 6.88153715 -1.31270746 6.88153715 -0.875 4.4375 C-0.70742187 3.61121094 -0.53984375 2.78492188 -0.3671875 1.93359375 C-0.24601563 1.29550781 -0.12484375 0.65742188 0 0 Z " fill="#7C1EB2" transform="translate(227,364)"/>
<path d="M0 0 C0.91007812 0.10183594 1.82015625 0.20367187 2.7578125 0.30859375 C3.45648438 0.39238281 4.15515625 0.47617188 4.875 0.5625 C4.875 0.8925 4.875 1.2225 4.875 1.5625 C2.06392806 2.07194993 -0.74841589 2.5702016 -3.5625 3.0625 C-4.34560547 3.20558594 -5.12871094 3.34867188 -5.93554688 3.49609375 C-14.185821 4.92206706 -21.86313604 4.76422567 -30.125 3.5625 C-30.125 2.9025 -30.125 2.2425 -30.125 1.5625 C-29.43873535 1.53744385 -28.7524707 1.5123877 -28.04541016 1.48657227 C-24.94674183 1.37078573 -21.84839077 1.24798115 -18.75 1.125 C-17.66976562 1.08568359 -16.58953125 1.04636719 -15.4765625 1.00585938 C-13.9296875 0.94301758 -13.9296875 0.94301758 -12.3515625 0.87890625 C-11.39846191 0.84224854 -10.44536133 0.80559082 -9.46337891 0.76782227 C-0.31061265 -0.03583992 -0.31061265 -0.03583992 0 0 Z " fill="#725DBF" transform="translate(172.125,239.4375)"/>
<path d="M0 0 C2.97 0 5.94 0 9 0 C8.01 0.495 8.01 0.495 7 1 C7 1.66 7 2.32 7 3 C9.31 2.34 11.62 1.68 14 1 C13.67 2.32 13.34 3.64 13 5 C13.66 5.33 14.32 5.66 15 6 C14.01 7.485 14.01 7.485 13 9 C2.8069846 5.92902741 2.8069846 5.92902741 0 3 C0 2.01 0 1.02 0 0 Z " fill="#812BB4" transform="translate(218,417)"/>
<path d="M0 0 C19.47 0 38.94 0 59 0 C58.67 0.99 58.34 1.98 58 3 C56.75420166 2.84152588 55.50840332 2.68305176 54.22485352 2.51977539 C48.61930192 1.899366 43.03776889 1.77544605 37.40234375 1.68359375 C36.32747208 1.66281265 35.2526004 1.64203156 34.14515686 1.62062073 C30.74266381 1.55571832 27.34009968 1.49651854 23.9375 1.4375 C21.61783146 1.39425826 19.29816987 1.35064225 16.97851562 1.30664062 C11.31908353 1.20009854 5.6595822 1.09822681 0 1 C0 0.67 0 0.34 0 0 Z " fill="#5B74CB" transform="translate(61,173)"/>
<path d="M0 0 C1 3 1 3 1 5 C0.34 5 -0.32 5 -1 5 C-1.061875 5.763125 -1.12375 6.52625 -1.1875 7.3125 C-2.496136 13.25169417 -5.28997479 18.57994958 -8 24 C-8.66 24 -9.32 24 -10 24 C-9.54803484 17.81218608 -7.44359034 13.43479315 -4.4375 8.0625 C-4.01275391 7.28326172 -3.58800781 6.50402344 -3.15039062 5.70117188 C-2.10987146 3.79550195 -1.05625582 1.89699278 0 0 Z " fill="#4277CE" transform="translate(47,105)"/>
<path d="M0 0 C-0.33 1.32 -0.66 2.64 -1 4 C-1.66 4 -2.32 4 -3 4 C-3 4.66 -3 5.32 -3 6 C-3.66 6 -4.32 6 -5 6 C-5 6.66 -5 7.32 -5 8 C-5.66 8 -6.32 8 -7 8 C-7.33 8.99 -7.66 9.98 -8 11 C-10.89558441 12.4477922 -12.74188938 13 -16 13 C-14.47379196 8.8410831 -11.46451578 6.75850553 -8 4.25 C-7.18015625 3.63318359 -7.18015625 3.63318359 -6.34375 3.00390625 C-2.27200997 0 -2.27200997 0 0 0 Z " fill="#4667CC" transform="translate(85,68)"/>
<path d="M0 0 C-1.37478252 3.22388237 -2.81096689 4.9130373 -5.625 6.98046875 C-6.33140625 7.50447266 -7.0378125 8.02847656 -7.765625 8.56835938 C-8.50296875 9.10267578 -9.2403125 9.63699219 -10 10.1875 C-11.10601562 11.00637695 -11.10601562 11.00637695 -12.234375 11.84179688 C-17.63139479 15.81569739 -17.63139479 15.81569739 -20 17 C-20 16.01 -20 15.02 -20 14 C-19.34 14 -18.68 14 -18 14 C-17.67 12.68 -17.34 11.36 -17 10 C-15.02 9.67 -13.04 9.34 -11 9 C-11 7.68 -11 6.36 -11 5 C-10.34 5 -9.68 5 -9 5 C-8.67 4.34 -8.34 3.68 -8 3 C-7.01 3.33 -6.02 3.66 -5 4 C-5.33 3.01 -5.66 2.02 -6 1 C-4 0 -4 0 0 0 Z " fill="#9F3DBA" transform="translate(294,417)"/>
<path d="M0 0 C8.58 0 17.16 0 26 0 C26 0.33 26 0.66 26 1 C20.04119404 2.19361175 14.31540463 1.98812266 8.265625 1.83984375 C4.91448153 1.63777121 4.91448153 1.63777121 3 4 C3 5.32 3 6.64 3 8 C1.02 8.99 -0.96 9.98 -3 11 C-2.50639991 6.72213252 -1.95216435 3.90432869 0 0 Z " fill="#B859D0" transform="translate(428,246)"/>
<path d="M0 0 C16.5 0 33 0 50 0 C50 0.33 50 0.66 50 1 C45.77099181 1.17085066 41.54177453 1.33588552 37.3125 1.5 C35.54422852 1.57154297 35.54422852 1.57154297 33.74023438 1.64453125 C25.82194596 1.94824642 17.92364246 2.05288794 10 2 C6.25838897 2 2.71046443 2.51338171 -1 3 C-0.67 2.01 -0.34 1.02 0 0 Z " fill="#7A0EA0" transform="translate(232,246)"/>
<path d="M0 0 C1.48484412 0.39595843 2.9628831 0.81750706 4.4375 1.25 C5.26121094 1.48203125 6.08492187 1.7140625 6.93359375 1.953125 C9 3 9 3 9.78515625 5.109375 C9.85605469 5.73328125 9.92695313 6.3571875 10 7 C4.375 9.125 4.375 9.125 1 8 C0.67 8.66 0.34 9.32 0 10 C-0.95024979 6.30458414 -0.95024979 3.69541586 0 0 Z " fill="#731BB5" transform="translate(209,70)"/>
<path d="M0 0 C0.33 0 0.66 0 1 0 C1.99 6.27 2.98 12.54 4 19 C2.02 18.34 0.04 17.68 -2 17 C-4.45140859 16.72178875 -6.91179765 16.51442655 -9.375 16.375 C-11.24285156 16.26285156 -11.24285156 16.26285156 -13.1484375 16.1484375 C-14.08945313 16.09945313 -15.03046875 16.05046875 -16 16 C-15.67 15.01 -15.34 14.02 -15 13 C-15 13.66 -15 14.32 -15 15 C-10.38 14.67 -5.76 14.34 -1 14 C0.00059674 10.99820979 -0.00193145 9.98841128 -0.5 7 C-0.99806855 4.01158872 -1.00059674 3.00179021 0 0 Z " fill="#935AB9" transform="translate(217,255)"/>
<path d="M0 0 C0.75 1.625 0.75 1.625 1 4 C-0.375 7.1875 -0.375 7.1875 -3 10 C-8.07501861 11.60801872 -11.22505763 11.38747118 -16 9 C-11.545 8.505 -11.545 8.505 -7 8 C-6.62875 6.5459375 -6.62875 6.5459375 -6.25 5.0625 C-5.8375 4.051875 -5.425 3.04125 -5 2 C-2.9375 1.1875 -2.9375 1.1875 -1 1 C-0.67 0.67 -0.34 0.34 0 0 Z " fill="#9830B4" transform="translate(281,230)"/>
<path d="M0 0 C2.00535489 3.74332913 3 6.73676315 3 11 C2 13.1875 2 13.1875 1 15 C-0.32 15 -1.64 15 -3 15 C-4.38226016 12.23547967 -4.09525387 9.9538637 -4.0625 6.875 C-4.05347656 5.77929688 -4.04445313 4.68359375 -4.03515625 3.5546875 C-4.02355469 2.71164062 -4.01195312 1.86859375 -4 1 C-3.67 1 -3.34 1 -3 1 C-2.67 2.65 -2.34 4.3 -2 6 C-1.67 6 -1.34 6 -1 6 C-0.67 4.02 -0.34 2.04 0 0 Z " fill="#BD6AD3" transform="translate(397,268)"/>
<path d="M0 0 C0.66 0 1.32 0 2 0 C1.41993763 7.75451806 0.37559416 15.34742277 -1 23 C-1.66 22.67 -2.32 22.34 -3 22 C-4.89185439 13.8920526 -2.77303728 7.70023658 0 0 Z " fill="#AB5CC0" transform="translate(299,227)"/>
<path d="M0 0 C0.99 0 1.98 0 3 0 C3.33 1.65 3.66 3.3 4 5 C3.01 5.495 3.01 5.495 2 6 C2 7.32 2 8.64 2 10 C0.824375 10.185625 0.824375 10.185625 -0.375 10.375 C-3.14057822 10.79117993 -3.14057822 10.79117993 -5 13 C-5.66 13 -6.32 13 -7 13 C-5.85828608 9.67865043 -4.34101632 6.70347797 -2.5625 3.6875 C-2.15128906 2.99011719 -1.74007813 2.29273437 -1.31640625 1.57421875 C-0.88199219 1.05472656 -0.44757813 0.53523438 0 0 Z " fill="#9C35B6" transform="translate(268,101)"/>
<path d="M0 0 C0.33 0 0.66 0 1 0 C1.11593506 0.73637695 1.23187012 1.47275391 1.35131836 2.23144531 C1.87819984 5.57125776 2.40781953 8.91063037 2.9375 12.25 C3.11990234 13.40886719 3.30230469 14.56773437 3.49023438 15.76171875 C3.66748047 16.87675781 3.84472656 17.99179687 4.02734375 19.140625 C4.18968506 20.16704102 4.35202637 21.19345703 4.51928711 22.25097656 C4.9195522 24.53994807 5.39716118 26.75753343 6 29 C5.01 28.67 4.02 28.34 3 28 C3 26.35 3 24.7 3 23 C2.34 23 1.68 23 1 23 C0.93941406 22.20335937 0.87882812 21.40671875 0.81640625 20.5859375 C0.31579154 14.04707181 0.31579154 14.04707181 -0.625 7.5625 C-1.03377666 4.76919283 -0.71832303 2.71366479 0 0 Z " fill="#C57FD8" transform="translate(412,248)"/>
<path d="M0 0 C2.47881117 3.7658862 2.08555517 6.91937639 1.75 11.3125 C1.66234375 12.58738281 1.5746875 13.86226563 1.484375 15.17578125 C0.99820249 19.01419163 0.16048541 22.32354416 -1 26 C-3.26532011 22.60201983 -3.18353602 21.94721088 -2.75 18.0625 C-2.64300781 17.09828125 -2.53601563 16.1340625 -2.42578125 15.140625 C-1.73863926 10.07216483 -0.90485303 5.03379402 0 0 Z " fill="#9E38B8" transform="translate(301,256)"/>
<path d="M0 0 C0.66 0 1.32 0 2 0 C3.77410051 5.31531689 4.2577668 9.85618805 4.125 15.4375 C4.11597656 16.16904297 4.10695313 16.90058594 4.09765625 17.65429688 C4.07436153 19.43634298 4.0385019 21.21821759 4 23 C3.67 23 3.34 23 3 23 C2.34 18.71 1.68 14.42 1 10 C0.34 11.32 -0.32 12.64 -1 14 C-1.02685938 11.85423363 -1.04633088 9.70837355 -1.0625 7.5625 C-1.07410156 6.36753906 -1.08570313 5.17257813 -1.09765625 3.94140625 C-1 1 -1 1 0 0 Z " fill="#B052C8" transform="translate(308,176)"/>
<path d="M0 0 C1.65 0.33 3.3 0.66 5 1 C1.56846086 4.53191322 -1.97375062 7.7137505 -5.8125 10.8125 C-7.27623047 11.99779297 -7.27623047 11.99779297 -8.76953125 13.20703125 C-9.50558594 13.79871094 -10.24164063 14.39039063 -11 15 C-11.33 13.68 -11.66 12.36 -12 11 C-10.68 10.67 -9.36 10.34 -8 10 C-8 9.01 -8 8.02 -8 7 C-6.68 7 -5.36 7 -4 7 C-4 6.34 -4 5.68 -4 5 C-3.01 5 -2.02 5 -1 5 C-0.67 3.35 -0.34 1.7 0 0 Z " fill="#A54BBE" transform="translate(308,402)"/>
<path d="M0 0 C0.33 1.32 0.66 2.64 1 4 C0.21625 4.226875 -0.5675 4.45375 -1.375 4.6875 C-4.2197245 5.74653828 -4.2197245 5.74653828 -5 8.5 C-6 11 -6 11 -8.625 12.3125 C-9.40875 12.539375 -10.1925 12.76625 -11 13 C-12 11 -12 11 -12 8 C-11.46375 7.7525 -10.9275 7.505 -10.375 7.25 C-6.57737023 5.25124749 -3.04053995 3.04053995 0 0 Z " fill="#812EB8" transform="translate(225,369)"/>
<path d="M0 0 C1.65 0 3.3 0 5 0 C4.67 0.598125 4.34 1.19625 4 1.8125 C2.79212012 4.05386471 2.79212012 4.05386471 3 7 C2.01 7.495 2.01 7.495 1 8 C1 10.31 1 12.62 1 15 C0.01 15.33 -0.98 15.66 -2 16 C-3.13314263 11.89517207 -2.78328091 9.24049263 -1.5625 5.1875 C-1.27503906 4.21167969 -0.98757812 3.23585937 -0.69140625 2.23046875 C-0.46324219 1.49441406 -0.23507813 0.75835937 0 0 Z " fill="#4680D2" transform="translate(35,130)"/>
<path d="M0 0 C0.66 0.33 1.32 0.66 2 1 C2.64419682 3.44972092 3.16936533 5.82743131 3.625 8.3125 C3.7590625 8.98990234 3.893125 9.66730469 4.03125 10.36523438 C4.66310531 13.66313223 5 16.62737674 5 20 C4.01 20.33 3.02 20.66 2 21 C0.81318274 17.43954823 0.90310168 14.56191663 0.9375 10.8125 C0.94652344 9.54019531 0.95554687 8.26789063 0.96484375 6.95703125 C0.97644531 5.98121094 0.98804688 5.00539062 1 4 C-0.98 4.99 -0.98 4.99 -3 6 C-1.125 1.125 -1.125 1.125 0 0 Z " fill="#A44EBA" transform="translate(287,234)"/>
<path d="M0 0 C-0.33 1.65 -0.66 3.3 -1 5 C-1.99 4.34 -2.98 3.68 -4 3 C-4.99 4.485 -4.99 4.485 -6 6 C-7.65 5.67 -9.3 5.34 -11 5 C-11 3.68 -11 2.36 -11 1 C-6.87831311 -0.62950412 -4.29299643 -1.26264601 0 0 Z " fill="#7137BF" transform="translate(196,217)"/>
<path d="M0 0 C0.66 0.33 1.32 0.66 2 1 C3.72888694 6.36864892 4.45025442 11.48903321 3 17 C2.67 17 2.34 17 2 17 C1.34 13.37 0.68 9.74 0 6 C-0.66 6 -1.32 6 -2 6 C-2 6.66 -2 7.32 -2 8 C-2.66 8 -3.32 8 -4 8 C-2.87548273 5.0280615 -1.77706209 2.66559313 0 0 Z " fill="#7743B6" transform="translate(189,234)"/>
<path d="M0 0 C0.556875 0.144375 1.11375 0.28875 1.6875 0.4375 C4.50492615 1.12281987 7.11111385 1.0656565 10 1 C9.690625 1.5775 9.38125 2.155 9.0625 2.75 C8.07416636 4.84294184 7.4831387 6.74535275 7 9 C5.25 8.9375 5.25 8.9375 3 8 C1.40498463 5.75835678 0.25456982 3.46433357 -1 1 C-0.67 0.67 -0.34 0.34 0 0 Z " fill="#544EC1" transform="translate(125,176)"/>
<path d="M0 0 C6.12211306 -0.09963656 11.94202386 0.00869481 18 1 C21.33047571 1.36350325 24.66465542 1.68458512 28 2 C28.33 1.34 28.66 0.68 29 0 C29 0.99 29 1.98 29 3 C25.47923768 3.05855176 21.9586024 3.0937806 18.4375 3.125 C16.9515332 3.15013672 16.9515332 3.15013672 15.43554688 3.17578125 C9.87271509 3.21274359 5.25156925 2.87082551 0 1 C0 0.67 0 0.34 0 0 Z " fill="#BD70D3" transform="translate(430,239)"/>
<path d="M0 0 C3.73959528 3.73959528 3.05603539 8.85200021 3.0625 13.875 C3.04655506 15.58338595 3.02735618 17.29175867 3 19 C2.01 19 1.02 19 0 19 C0.20625 18.319375 0.4125 17.63875 0.625 16.9375 C1.10145114 13.20529937 0.12084937 10.56034507 -1 7 C-1 4.37886292 -0.68707555 2.49064888 0 0 Z " fill="#B764D0" transform="translate(409,234)"/>
<path d="M0 0 C0.98608749 0.00212242 0.98608749 0.00212242 1.99209595 0.00428772 C4.07029981 0.00983863 6.14839177 0.0223816 8.2265625 0.03515625 C9.64452968 0.04017761 11.06249857 0.0447394 12.48046875 0.04882812 C15.93753572 0.05979188 19.39453817 0.07702204 22.8515625 0.09765625 C22.8515625 0.42765625 22.8515625 0.75765625 22.8515625 1.09765625 C21.47871094 1.18853516 21.47871094 1.18853516 20.078125 1.28125 C18.88960938 1.36503906 17.70109375 1.44882812 16.4765625 1.53515625 C15.29320312 1.61636719 14.10984375 1.69757812 12.890625 1.78125 C9.93637349 1.90850561 9.93637349 1.90850561 7.8515625 3.09765625 C7.1915625 2.76765625 6.5315625 2.43765625 5.8515625 2.09765625 C3.8140862 1.86907511 1.77115947 1.68741347 -0.2734375 1.53515625 C-1.91699219 1.40947266 -1.91699219 1.40947266 -3.59375 1.28125 C-4.43679688 1.22066406 -5.27984375 1.16007812 -6.1484375 1.09765625 C-6.1484375 1.75765625 -6.1484375 2.41765625 -6.1484375 3.09765625 C-8.4584375 2.76765625 -10.7684375 2.43765625 -13.1484375 2.09765625 C-13.1484375 1.76765625 -13.1484375 1.43765625 -13.1484375 1.09765625 C-8.70696181 0.23849529 -4.52073926 -0.0193194 0 0 Z " fill="#B76CCD" transform="translate(358.1484375,49.90234375)"/>
<path d="M0 0 C3 2 3 2 4 5 C2.75823305 5.70226141 1.50614401 6.38629109 0.25 7.0625 C-0.79414062 7.63677734 -0.79414062 7.63677734 -1.859375 8.22265625 C-4 9 -4 9 -8 8 C-5.36 5.36 -2.72 2.72 0 0 Z " fill="#2E59C8" transform="translate(68,80)"/>
<path d="M0 0 C-0.33 0.99 -0.66 1.98 -1 3 C-2.31774196 3.39044206 -3.65667272 3.70955086 -5 4 C-8.12613908 5.43802398 -10.56062009 6.56062009 -13 9 C-13.33 8.01 -13.66 7.02 -14 6 C-14.66 5.34 -15.32 4.68 -16 4 C-13.89748139 3.32815382 -11.79292237 2.66269032 -9.6875 2 C-8.51574219 1.62875 -7.34398437 1.2575 -6.13671875 0.875 C-3 0 -3 0 0 0 Z " fill="#AC4EC5" transform="translate(339,53)"/>
<path d="M0 0 C1.1875 1.5625 1.1875 1.5625 2 4 C1.00522247 6.33556463 0.00484883 8.66875071 -1 11 C-0.79653753 14.32224191 -0.79653753 14.32224191 0 17 C-0.66 17 -1.32 17 -2 17 C-2.33 17.66 -2.66 18.32 -3 19 C-3.08117951 16.58265458 -3.14056926 14.16805051 -3.1875 11.75 C-3.21263672 11.06808594 -3.23777344 10.38617188 -3.26367188 9.68359375 C-3.31137459 6.40800711 -3.21085076 4.34651444 -1.48828125 1.515625 C-0.99714844 1.01546875 -0.50601562 0.5153125 0 0 Z " fill="#B558D1" transform="translate(405,234)"/>
<path d="M0 0 C0.99 0.33 1.98 0.66 3 1 C3.72945166 4.46489537 4 7.46423522 4 11 C3.01 11.495 3.01 11.495 2 12 C0.86649466 14.01669827 0.86649466 14.01669827 0 16 C0.020625 14.948125 0.04125 13.89625 0.0625 12.8125 C0.12268995 9.16446237 0.12268995 9.16446237 -0.5625 6.3125 C-1.03101465 3.83606542 -0.78894756 2.36684269 0 0 Z " fill="#7110B1" transform="translate(220,221)"/>
<path d="M0 0 C1.65 0 3.3 0 5 0 C4.46375 0.391875 3.9275 0.78375 3.375 1.1875 C-3.2809406 6.22274951 -3.2809406 6.22274951 -8 13 C-8.33 11.68 -8.66 10.36 -9 9 C-8.34 9 -7.68 9 -7 9 C-6.67 6.69 -6.34 4.38 -6 2 C-4.02 2 -2.04 2 0 2 C0 1.34 0 0.68 0 0 Z " fill="#5382D1" transform="translate(54,174)"/>
<path d="M0 0 C6.20988129 0.44356295 10.60540561 1.91532502 16 5 C16 5.33 16 5.66 16 6 C13.36 6 10.72 6 8 6 C8 5.34 8 4.68 8 4 C7.05125 3.896875 6.1025 3.79375 5.125 3.6875 C2 3 2 3 0 0 Z " fill="#7A47B8" transform="translate(184,57)"/>
<path d="M0 0 C0.66 0.33 1.32 0.66 2 1 C2 3.64 2 6.28 2 9 C1.01 9 0.02 9 -1 9 C-2.68798827 10.43750191 -2.68798827 10.43750191 -4 12 C-4.50423019 6.70558305 -3.18923033 4.18586481 0 0 Z " fill="#B165C7" transform="translate(385,234)"/>
<path d="M0 0 C3.465 1.485 3.465 1.485 7 3 C6.01 3.33 5.02 3.66 4 4 C4 4.66 4 5.32 4 6 C3.01 6 2.02 6 1 6 C1 6.66 1 7.32 1 8 C-0.32 7.67 -1.64 7.34 -3 7 C-2.25 2.25 -2.25 2.25 0 0 Z " fill="#1051D2" transform="translate(53,168)"/>
<path d="M0 0 C4.20240011 3.71750779 6.99782679 8.31660979 10 13 C9.67 13.66 9.34 14.32 9 15 C8.01 15.33 7.02 15.66 6 16 C5.896875 15.071875 5.79375 14.14375 5.6875 13.1875 C4.97429072 9.88080243 4.44405178 9.12526242 2 7 C2 6.34 2 5.68 2 5 C1.34 5 0.68 5 0 5 C0 3.35 0 1.7 0 0 Z " fill="#9842B6" transform="translate(239,95)"/>
<path d="M0 0 C3.85025879 0.60355408 6.86101159 1.76772603 10.3125 3.5625 C11.19550781 4.01753906 12.07851563 4.47257812 12.98828125 4.94140625 C13.65214844 5.29074219 14.31601562 5.64007813 15 6 C10.43816342 7.43729098 6.3975952 6.79001918 2 5 C0.4375 2.375 0.4375 2.375 0 0 Z " fill="#C07AD3" transform="translate(405,57)"/>
<path d="M0 0 C-3.465 1.485 -3.465 1.485 -7 3 C-7 3.66 -7 4.32 -7 5 C-8.65 5.33 -10.3 5.66 -12 6 C-12 5.01 -12 4.02 -12 3 C-13.32 2.67 -14.64 2.34 -16 2 C-10.91409374 -0.31177557 -5.4467403 -1.96082651 0 0 Z " fill="#474EC4" transform="translate(118,56)"/>
<path d="M0 0 C0.33 0.66 0.66 1.32 1 2 C1.66 2 2.32 2 3 2 C2.67 4.97 2.34 7.94 2 11 C0.35 11.33 -1.3 11.66 -3 12 C-2.68950274 10.56206608 -2.3765224 9.1246682 -2.0625 7.6875 C-1.88847656 6.88699219 -1.71445313 6.08648437 -1.53515625 5.26171875 C-1 3 -1 3 0 0 Z " fill="#903BB9" transform="translate(230,247)"/>
<path d="M0 0 C-0.64544429 3.48539917 -2.10134397 6.02819057 -4 9 C-4.99 8.67 -5.98 8.34 -7 8 C-6.62952882 5.25851328 -6.31412056 3.41406801 -4.625 1.1875 C-3 0 -3 0 0 0 Z " fill="#740DB6" transform="translate(226,374)"/>
<path d="M0 0 C0.66 0 1.32 0 2 0 C2.33808686 2.06172613 2.67027361 4.1244203 3 6.1875 C3.185625 7.33605469 3.37125 8.48460937 3.5625 9.66796875 C3.93489477 12.50415393 4.08596021 15.14719564 4 18 C3.34 18 2.68 18 2 18 C-0.1583195 11.92972642 -0.20852314 6.40629424 0 0 Z " fill="#8746B8" transform="translate(213,236)"/>
<path d="M0 0 C0.66 1.32 1.32 2.64 2 4 C0.625 7.25 0.625 7.25 -1 10 C-1.598125 9.34 -2.19625 8.68 -2.8125 8 C-4.87501834 5.6626154 -4.87501834 5.6626154 -8 6 C-5.36 4.02 -2.72 2.04 0 0 Z " fill="#A134BF" transform="translate(299,70)"/>
<path d="M0 0 C0.804375 0.185625 1.60875 0.37125 2.4375 0.5625 C3.283125 0.706875 4.12875 0.85125 5 1 C5.33 0.67 5.66 0.34 6 0 C7.66617115 -0.04063832 9.33388095 -0.042721 11 0 C11 0.66 11 1.32 11 2 C10.01 2.33 9.02 2.66 8 3 C6.33289654 4.49985609 6.33289654 4.49985609 5 6 C4.34 5.67 3.68 5.34 3 5 C3 4.34 3 3.68 3 3 C2.01 3.33 1.02 3.66 0 4 C0 2.68 0 1.36 0 0 Z " fill="#5F1DB9" transform="translate(181,384)"/>
<path d="M0 0 C0.33 0 0.66 0 1 0 C1.04898438 0.59167969 1.09796875 1.18335938 1.1484375 1.79296875 C1.56456867 6.19104472 2.04965595 9.96928897 4 14 C3.34 14.66 2.68 15.32 2 16 C-1.95466242 12.16517584 -1.95466242 12.16517584 -2.078125 8.9921875 C-1.68701977 5.87484873 -0.992607 2.97782099 0 0 Z " fill="#9956BE" transform="translate(224,265)"/>
<path d="M0 0 C0.33 0 0.66 0 1 0 C0.41993763 7.75451806 -0.62440584 15.34742277 -2 23 C-2.33 23 -2.66 23 -3 23 C-4.10277661 17.59639459 -3.64688431 14.21513364 -2 9 C-1.78405256 7.54560698 -1.59643945 6.0867218 -1.4375 4.625 C-1 1 -1 1 0 0 Z " fill="#9660C3" transform="translate(208,191)"/>
<path d="M0 0 C-0.25561323 2.3431213 -0.59270772 4.67843403 -1 7 C-1.99 7.495 -1.99 7.495 -3 8 C-3.33 7.34 -3.66 6.68 -4 6 C-4.66 7.32 -5.32 8.64 -6 10 C-6.94296589 6.33291043 -7.11421833 3.64653273 -6 0 C-3.50907189 -1.24546405 -2.58919267 -0.7767578 0 0 Z " fill="#BA54D6" transform="translate(424,289)"/>
<path d="M0 0 C0.66 0 1.32 0 2 0 C4.18994248 3.28491373 4.35277339 4.83095639 4.625 8.6875 C4.69976562 9.68136719 4.77453125 10.67523438 4.8515625 11.69921875 C4.90054688 12.45847656 4.94953125 13.21773437 5 14 C1.38728823 10.56544936 0.06577871 7.7431357 -0.125 2.6875 C-0.08375 1.800625 -0.0425 0.91375 0 0 Z " fill="#386EC0" transform="translate(40,212)"/>
<path d="M0 0 C5.7097955 0.41778991 8.60957142 2.57546571 13 6 C11.1875 6.625 11.1875 6.625 9 7 C8.01 6.34 7.02 5.68 6 5 C4.01200182 4.29835358 2.01301483 3.62627128 0 3 C0 2.01 0 1.02 0 0 Z " fill="#8048B9" transform="translate(202,65)"/>
<path d="M0 0 C0.33 0 0.66 0 1 0 C1 4.62 1 9.24 1 14 C0.67 12.68 0.34 11.36 0 10 C-0.99 10.33 -1.98 10.66 -3 11 C-3.33 8.36 -3.66 5.72 -4 3 C-2.68 3.33 -1.36 3.66 0 4 C-0.33 3.01 -0.66 2.02 -1 1 C-0.67 0.67 -0.34 0.34 0 0 Z " fill="#6818B2" transform="translate(204,201)"/>
<path d="M0 0 C0.66 0 1.32 0 2 0 C1.57045059 6.25107435 0.98598493 12.04204521 -1 18 C-1.33 18 -1.66 18 -2 18 C-2.20190089 11.64012196 -1.6277833 6.14778871 0 0 Z " fill="#A653BD" transform="translate(305,191)"/>
<path d="M0 0 C0.33 0.99 0.66 1.98 1 3 C-0.65234375 5.91796875 -0.65234375 5.91796875 -2.9375 9.1875 C-3.32357422 9.74630859 -3.70964844 10.30511719 -4.10742188 10.88085938 C-5.06242753 12.26031198 -6.03004093 13.63102056 -7 15 C-8 12 -8 12 -7.22265625 10.17578125 C-6.1484375 8.45052083 -5.07421875 6.72526042 -4 5 C-3.34 5 -2.68 5 -2 5 C-2 3.68 -2 2.36 -2 1 C-1.34 0.67 -0.68 0.34 0 0 Z " fill="#C782DA" transform="translate(447,259)"/>
<path d="M0 0 C0.99 0 1.98 0 3 0 C1.23570801 4.97209562 -1.3939166 9.43438061 -4 14 C-4.99 13.34 -5.98 12.68 -7 12 C-6.01 11.67 -5.02 11.34 -4 11 C-3.87625 9.865625 -3.7525 8.73125 -3.625 7.5625 C-3.41875 6.386875 -3.2125 5.21125 -3 4 C-2.34 3.67 -1.68 3.34 -1 3 C-0.67 2.01 -0.34 1.02 0 0 Z " fill="#BB6CCF" transform="translate(384,220)"/>
<path d="M0 0 C0.66 1.32 1.32 2.64 2 4 C2.66 4 3.32 4 4 4 C4 5.32 4 6.64 4 8 C5.65 8 7.3 8 9 8 C8.67 8.66 8.34 9.32 8 10 C-0.15384615 8 -0.15384615 8 -2 5 C-1.74853421 2.86254078 -1.54074221 1.54074221 0 0 Z " fill="#6A15B3" transform="translate(206,402)"/>
<path d="M0 0 C1.32 0.33 2.64 0.66 4 1 C3.45912682 4.78611227 1.88277668 6.55400767 -1 9 C-1.66 9 -2.32 9 -3 9 C-3 7.68 -3 6.36 -3 5 C-2.34 5 -1.68 5 -1 5 C-0.67 3.35 -0.34 1.7 0 0 Z " fill="#B66ACD" transform="translate(379,337)"/>
<path d="M0 0 C3.10011632 2.53645881 4.0575938 5.15184135 5 9 C4.625 11.375 4.625 11.375 4 13 C3.01 12.67 2.02 12.34 1 12 C1 9.36 1 6.72 1 4 C0.34 4 -0.32 4 -1 4 C-0.67 2.68 -0.34 1.36 0 0 Z " fill="#C56DDE" transform="translate(463,103)"/>
<path d="M0 0 C0.66 0.33 1.32 0.66 2 1 C1.67 1.99 1.34 2.98 1 4 C1.66 4.33 2.32 4.66 3 5 C2.01 6.485 2.01 6.485 1 8 C-0.98 7.34 -2.96 6.68 -5 6 C-4.75 4.125 -4.75 4.125 -4 2 C-2.0625 0.6875 -2.0625 0.6875 0 0 Z " fill="#770BAF" transform="translate(230,418)"/>
<path d="M0 0 C1.65 0 3.3 0 5 0 C5.6875 1.8125 5.6875 1.8125 6 4 C4.8125 5.75 4.8125 5.75 3 7 C1.68 7 0.36 7 -1 7 C-0.67 4.69 -0.34 2.38 0 0 Z " fill="#A024C0" transform="translate(330,247)"/>
<path d="M0 0 C1.32 0 2.64 0 4 0 C5.03864166 3.11592499 5.09036928 4.0262656 4 7 C3.01 7.495 3.01 7.495 2 8 C2 8.99 2 9.98 2 11 C1.01 10.34 0.02 9.68 -1 9 C-0.67 8.01 -0.34 7.02 0 6 C0.66 6 1.32 6 2 6 C2 5.34 2 4.68 2 4 C1.34 4 0.68 4 0 4 C0 2.68 0 1.36 0 0 Z " fill="#AA3DC8" transform="translate(376,224)"/>
<path d="M0 0 C2.375 0.25 2.375 0.25 5 1 C6.3125 3.0625 6.3125 3.0625 7 5 C5.35 6.65 3.7 8.3 2 10 C1.855625 8.906875 1.71125 7.81375 1.5625 6.6875 C1.11711896 3.06877013 1.11711896 3.06877013 0 0 Z " fill="#C369DC" transform="translate(447,86)"/>
<path d="M0 0 C1.75070517 0.11470137 3.50057536 0.24219028 5.25 0.375 C6.22453125 0.44460937 7.1990625 0.51421875 8.203125 0.5859375 C10.89633189 0.98465249 12.66963279 1.63507063 15 3 C13.58456585 3.19658808 12.16755969 3.38187546 10.75 3.5625 C9.96109375 3.66691406 9.1721875 3.77132812 8.359375 3.87890625 C5.97165492 4.0014548 4.27214233 3.69319597 2 3 C1.2575 2.814375 0.515 2.62875 -0.25 2.4375 C-0.8275 2.293125 -1.405 2.14875 -2 2 C-1.34 2 -0.68 2 0 2 C0 1.34 0 0.68 0 0 Z " fill="#7957BF" transform="translate(162,51)"/>
<path d="M0 0 C0.99 0.99 1.98 1.98 3 3 C3 3.66 3 4.32 3 5 C2.34 5 1.68 5 1 5 C1 8.3 1 11.6 1 15 C0.01 15.33 -0.98 15.66 -2 16 C-1.34 10.72 -0.68 5.44 0 0 Z " fill="#8B4FBC" transform="translate(208,226)"/>
<path d="M0 0 C0.33 0.66 0.66 1.32 1 2 C1.66 2 2.32 2 3 2 C3.74926071 5.66305234 4.2380014 8.42355152 3 12 C2.34 12 1.68 12 1 12 C-0.26237731 9.47524538 -0.09856404 7.68799534 -0.0625 4.875 C-0.05347656 3.96492187 -0.04445313 3.05484375 -0.03515625 2.1171875 C-0.02355469 1.41851562 -0.01195312 0.71984375 0 0 Z " fill="#B65BCF" transform="translate(409,188)"/>
<path d="M0 0 C0.99 0 1.98 0 3 0 C3.66 1.32 4.32 2.64 5 4 C3.68 5.32 2.36 6.64 1 8 C-0.5625 6.75 -0.5625 6.75 -2 5 C-1.74853421 2.86254078 -1.54074221 1.54074221 0 0 Z " fill="#7908AF" transform="translate(235,424)"/>
<path d="M0 0 C1.98 0 3.96 0 6 0 C3.66666667 2.33333333 1.33333333 4.66666667 -1 7 C-1.99 7 -2.98 7 -4 7 C-3.625 5.0625 -3.625 5.0625 -3 3 C-2.34 2.67 -1.68 2.34 -1 2 C-0.67 1.34 -0.34 0.68 0 0 Z " fill="#A44EBD" transform="translate(319,393)"/>
<path d="M0 0 C0.33 0.66 0.66 1.32 1 2 C2.65 1.67 4.3 1.34 6 1 C5.0919838 2.13199353 4.17316174 3.25532363 3.25 4.375 C2.73953125 5.00148438 2.2290625 5.62796875 1.703125 6.2734375 C-0.08199481 8.08312318 -1.67949644 9.00117455 -4 10 C-4 9.01 -4 8.02 -4 7 C-3.01 7 -2.02 7 -1 7 C-0.67 4.69 -0.34 2.38 0 0 Z " fill="#B260C6" transform="translate(346,368)"/>
<path d="M0 0 C0.33 0 0.66 0 1 0 C1.53181175 2.24743045 2.05007126 4.49807102 2.5625 6.75 C2.85253906 8.00296875 3.14257812 9.2559375 3.44140625 10.546875 C3.93444283 13.59473748 4.07666879 15.17641828 3 18 C-0.65988816 14.34011184 -0.05470803 9.00261034 -0.0625 4.0625 C-0.04667422 2.70826555 -0.02763357 1.35404497 0 0 Z " fill="#AA57BF" transform="translate(292,255)"/>
<path d="M0 0 C0.33 0.66 0.66 1.32 1 2 C1.66 2 2.32 2 3 2 C3.66 3.98 4.32 5.96 5 8 C-0.66153846 6.52307692 -0.66153846 6.52307692 -2.375 3.875 C-2.58125 3.25625 -2.7875 2.6375 -3 2 C-2.01 1.34 -1.02 0.68 0 0 Z " fill="#6653C7" transform="translate(141,260)"/>
<path d="M0 0 C1.82021199 5.05614441 0.59756444 9.68535823 -1.5625 14.4375 C-2.036875 15.283125 -2.51125 16.12875 -3 17 C-3.66 17 -4.32 17 -5 17 C-1.92482916 5.47835991 -1.92482916 5.47835991 0 0 Z " fill="#A857BF" transform="translate(327,251)"/>
<path d="M0 0 C0 0.66 0 1.32 0 2 C-5.61 1.67 -11.22 1.34 -17 1 C-17 0.67 -17 0.34 -17 0 C-11.06975197 -0.97040422 -5.93609666 -0.89316269 0 0 Z " fill="#9E4BBC" transform="translate(249,240)"/>
<path d="M0 0 C0.66 0 1.32 0 2 0 C2.33 0.66 2.66 1.32 3 2 C3.99 1.34 4.98 0.68 6 0 C5.01 3.3 4.02 6.6 3 10 C2.34 9.67 1.68 9.34 1 9 C0.5859375 6.93359375 0.5859375 6.93359375 0.375 4.4375 C0.30023438 3.61121094 0.22546875 2.78492188 0.1484375 1.93359375 C0.09945313 1.29550781 0.05046875 0.65742188 0 0 Z " fill="#9C37B7" transform="translate(293,230)"/>
<path d="M0 0 C0.99 0.33 1.98 0.66 3 1 C4.01953125 3.1796875 4.01953125 3.1796875 4.8125 5.875 C5.08707031 6.75929687 5.36164062 7.64359375 5.64453125 8.5546875 C6 11 6 11 4 14 C3.32968281 12.0429132 2.66385317 10.08428887 2 8.125 C1.62875 7.03445312 1.2575 5.94390625 0.875 4.8203125 C0 2 0 2 0 0 Z " fill="#4D81D2" transform="translate(35,201)"/>
<path d="M0 0 C0.66 1.32 1.32 2.64 2 4 C1.01 4.495 1.01 4.495 0 5 C-0.35412344 6.32796291 -0.68521554 7.66216607 -1 9 C-1.66 9.99 -2.32 10.98 -3 12 C-3.62457273 8.56484998 -4 5.50935186 -4 2 C-2.68 1.34 -1.36 0.68 0 0 Z " fill="#9318B6" transform="translate(304,68)"/>
<path d="M0 0 C4.51720311 -0.36625971 4.51720311 -0.36625971 6.8125 1.375 C8 3 8 3 8 5 C8.66 5 9.32 5 10 5 C10.33 6.65 10.66 8.3 11 10 C7.19364503 6.79239749 3.45436433 3.59253891 0 0 Z " fill="#845FC2" transform="translate(170,379)"/>
<path d="M0 0 C0.66 0 1.32 0 2 0 C1.68950274 1.43793392 1.3765224 2.8753318 1.0625 4.3125 C0.88847656 5.11300781 0.71445313 5.91351563 0.53515625 6.73828125 C0 9 0 9 -1 12 C-1.66 12 -2.32 12 -3 12 C-3.33 9.36 -3.66 6.72 -4 4 C-3.01 4 -2.02 4 -1 4 C-0.67 2.68 -0.34 1.36 0 0 Z " fill="#A269BF" transform="translate(225,241)"/>
<path d="M0 0 C0.33 0 0.66 0 1 0 C1 1.65 1 3.3 1 5 C1.99 5 2.98 5 4 5 C3 8 3 8 2 10 C2.66 10 3.32 10 4 10 C3.67 10.99 3.34 11.98 3 13 C-0.14789274 9.57837746 -0.66086799 6.5782822 -1 2 C-0.67 1.34 -0.34 0.68 0 0 Z " fill="#2369CF" transform="translate(32,179)"/>
<path d="M0 0 C2 3 2 3 2 6 C1.01 6.495 1.01 6.495 0 7 C0.66 7.66 1.32 8.32 2 9 C-0.76264289 9.59732819 -3.16032769 10 -6 10 C-6 9.34 -6 8.68 -6 8 C-5.195625 7.38125 -4.39125 6.7625 -3.5625 6.125 C-0.96935871 3.97459015 -0.34779165 3.24605542 0 0 Z " fill="#8605AA" transform="translate(260,118)"/>
<path d="M0 0 C0.226875 0.639375 0.45375 1.27875 0.6875 1.9375 C1.85250896 4.27193661 1.85250896 4.27193661 4.625 4.75 C5.40875 4.8325 6.1925 4.915 7 5 C7 6.32 7 7.64 7 9 C3.4213696 7.34832443 0.25179812 5.21713508 -3 3 C-2.01 2.01 -1.02 1.02 0 0 Z " fill="#9646B9" transform="translate(237,429)"/>
<path d="M0 0 C0.66 0 1.32 0 2 0 C2.33 0.66 2.66 1.32 3 2 C3.99 2 4.98 2 6 2 C6 2.99 6 3.98 6 5 C7.43750191 6.68798827 7.43750191 6.68798827 9 8 C5.41087588 8 4.89142971 7.33563446 2.3125 5 C1.68988281 4.443125 1.06726563 3.88625 0.42578125 3.3125 C-0.04472656 2.879375 -0.51523438 2.44625 -1 2 C-0.67 1.34 -0.34 0.68 0 0 Z " fill="#7646B8" transform="translate(182,387)"/>
<path d="M0 0 C0.99 0.33 1.98 0.66 3 1 C3 2.32 3 3.64 3 5 C-0.465 6.485 -0.465 6.485 -4 8 C-3.34 6.02 -2.68 4.04 -2 2 C-1.34 2 -0.68 2 0 2 C0 1.34 0 0.68 0 0 Z " fill="#9F35BF" transform="translate(324,266)"/>
<path d="M0 0 C1.65 0 3.3 0 5 0 C4.34 2.97 3.68 5.94 3 9 C2.34 9 1.68 9 1 9 C0.67 6.03 0.34 3.06 0 0 Z " fill="#B46FC7" transform="translate(319,244)"/>
<path d="M0 0 C0.91007813 0.10183594 1.82015625 0.20367187 2.7578125 0.30859375 C3.45648438 0.39238281 4.15515625 0.47617188 4.875 0.5625 C4.875 0.8925 4.875 1.2225 4.875 1.5625 C-0.075 2.2225 -5.025 2.8825 -10.125 3.5625 C-6.24217577 -0.32032423 -5.24129051 -0.60476429 0 0 Z " fill="#8567C4" transform="translate(172.125,239.4375)"/>
<path d="M0 0 C2.49505962 2.49505962 2.35948376 3.67328888 2.625 7.125 C2.69976562 8.03507813 2.77453125 8.94515625 2.8515625 9.8828125 C2.92503906 10.93082031 2.92503906 10.93082031 3 12 C1.68 11.34 0.36 10.68 -1 10 C-0.67 6.7 -0.34 3.4 0 0 Z " fill="#9567BB" transform="translate(210,216)"/>
<path d="M0 0 C-0.34879632 3.25543229 -1.02133261 4.01873107 -3.5625 6.25 C-4.366875 6.8275 -5.17125 7.405 -6 8 C-6.33 6.68 -6.66 5.36 -7 4 C-6.01 3.67 -5.02 3.34 -4 3 C-4 2.34 -4 1.68 -4 1 C-2 0 -2 0 0 0 Z " fill="#A94DC5" transform="translate(376,344)"/>
<path d="M0 0 C0.66 0 1.32 0 2 0 C2.33 4.29 2.66 8.58 3 13 C2.67 12.01 2.34 11.02 2 10 C1.34 10 0.68 10 0 10 C0 7.69 0 5.38 0 3 C-0.66 2.67 -1.32 2.34 -2 2 C-1.34 1.34 -0.68 0.68 0 0 Z " fill="#900FAD" transform="translate(286,238)"/>
<path d="M0 0 C0.33 0.66 0.66 1.32 1 2 C3.35599235 2.46751788 3.35599235 2.46751788 6.0625 2.625 C7.44115234 2.73714844 7.44115234 2.73714844 8.84765625 2.8515625 C9.55792969 2.90054688 10.26820313 2.94953125 11 3 C11 3.33 11 3.66 11 4 C7.7 4 4.4 4 1 4 C0.34 5.98 -0.32 7.96 -1 10 C-1.33 10 -1.66 10 -2 10 C-1.85950482 8.52031676 -1.71245174 7.04125484 -1.5625 5.5625 C-1.48128906 4.73878906 -1.40007812 3.91507813 -1.31640625 3.06640625 C-1 1 -1 1 0 0 Z " fill="#CC8ADD" transform="translate(423,237)"/>
<path d="M0 0 C-0.33 3.3 -0.66 6.6 -1 10 C-1.66 10 -2.32 10 -3 10 C-3.33 7.03 -3.66 4.06 -4 1 C-2 0 -2 0 0 0 Z " fill="#C687D5" transform="translate(397,239)"/>
<path d="M0 0 C0.66 0 1.32 0 2 0 C1.46884894 4.51478398 -0.36620292 7.34666857 -3 11 C-3.66 10.67 -4.32 10.34 -5 10 C-3.25 4.25 -3.25 4.25 -1 2 C-0.67 1.34 -0.34 0.68 0 0 Z " fill="#794FBB" transform="translate(183,229)"/>
<path d="M0 0 C2.475 0.99 2.475 0.99 5 2 C4.67 3.32 4.34 4.64 4 6 C2.35 6.33 0.7 6.66 -1 7 C-0.67 4.69 -0.34 2.38 0 0 Z " fill="#BE59D8" transform="translate(441,81)"/>
<path d="M0 0 C0.66 0.99 1.32 1.98 2 3 C0.90554162 3.86657116 -0.20097781 4.71792724 -1.3125 5.5625 C-1.92738281 6.03816406 -2.54226563 6.51382813 -3.17578125 7.00390625 C-3.77777344 7.33261719 -4.37976563 7.66132812 -5 8 C-5.99 7.67 -6.98 7.34 -8 7 C-5.36 4.69 -2.72 2.38 0 0 Z " fill="#A44CBC" transform="translate(290,77)"/>
<path d="M0 0 C0.66 0.33 1.32 0.66 2 1 C1.65120368 4.25543229 0.97866739 5.01873107 -1.5625 7.25 C-2.7690625 8.11625 -2.7690625 8.11625 -4 9 C-4.33 8.01 -4.66 7.02 -5 6 C-4.34 5.34 -3.68 4.68 -3 4 C-3 3.34 -3 2.68 -3 2 C-2.01 2 -1.02 2 0 2 C0 1.34 0 0.68 0 0 Z " fill="#AE53C6" transform="translate(387,330)"/>
<path d="M0 0 C0.33 0 0.66 0 1 0 C2.01924246 6.21369499 2.62926746 10.48351346 -1 16 C-2.26823485 12.34606463 -1.75715321 9.50929974 -1.0625 5.75 C-0.86785156 4.67234375 -0.67320312 3.5946875 -0.47265625 2.484375 C-0.31667969 1.66453125 -0.16070312 0.8446875 0 0 Z " fill="#9057BD" transform="translate(205,244)"/>
<path d="M0 0 C2.49505962 2.49505962 2.35948376 3.67328888 2.625 7.125 C2.69976562 8.03507813 2.77453125 8.94515625 2.8515625 9.8828125 C2.92503906 10.93082031 2.92503906 10.93082031 3 12 C1.68 11.34 0.36 10.68 -1 10 C-0.67 6.7 -0.34 3.4 0 0 Z " fill="#B171C2" transform="translate(308,216)"/>
<path d="M0 0 C1.98 0 3.96 0 6 0 C6.33 1.32 6.66 2.64 7 4 C4.36 4 1.72 4 -1 4 C-0.67 2.68 -0.34 1.36 0 0 Z " fill="#2145C7" transform="translate(85,68)"/>
<path d="M0 0 C0 0.99 0 1.98 0 3 C-2.8125 3.6875 -2.8125 3.6875 -6 4 C-7.875 2.5625 -7.875 2.5625 -9 1 C-2.25 -1.125 -2.25 -1.125 0 0 Z " fill="#920DB3" transform="translate(289,418)"/>
<path d="M0 0 C3.875 1.75 3.875 1.75 5 4 C6.32 4 7.64 4 9 4 C8.67 4.99 8.34 5.98 8 7 C5.03 6.505 5.03 6.505 2 6 C2 5.34 2 4.68 2 4 C1.34 3.67 0.68 3.34 0 3 C0 2.01 0 1.02 0 0 Z " fill="#5F1BB6" transform="translate(188,390)"/>
<path d="M0 0 C0.66 0.66 1.32 1.32 2 2 C0.02 4.64 -1.96 7.28 -4 10 C-4.66 8.68 -5.32 7.36 -6 6 C-5.67 5.34 -5.34 4.68 -5 4 C-2.4375 3.375 -2.4375 3.375 0 3 C0 2.01 0 1.02 0 0 Z " fill="#C579D9" transform="translate(428,285)"/>
<path d="M0 0 C0.99 0.495 0.99 0.495 2 1 C2 1.66 2 2.32 2 3 C2.99 3.33 3.98 3.66 5 4 C5 4.99 5 5.98 5 7 C4.01 7 3.02 7 2 7 C1.67 7.66 1.34 8.32 1 9 C-0.4783226 6.04335481 -0.06032783 3.25770263 0 0 Z " fill="#9429B3" transform="translate(319,237)"/>
<path d="M0 0 C0.33 0.66 0.66 1.32 1 2 C1.66 2 2.32 2 3 2 C3.33 2.99 3.66 3.98 4 5 C3.34 5 2.68 5 2 5 C2 5.66 2 6.32 2 7 C1.01 7.33 0.02 7.66 -1 8 C-1.625 5.6875 -1.625 5.6875 -2 3 C-1.34 2.01 -0.68 1.02 0 0 Z " fill="#8B0AB3" transform="translate(274,424)"/>
<path d="M0 0 C2.64 0.66 5.28 1.32 8 2 C8 2.66 8 3.32 8 4 C8.66 4 9.32 4 10 4 C9.67 4.99 9.34 5.98 9 7 C5.46627288 5.03681826 2.75520215 2.95929119 0 0 Z " fill="#8B4CBC" transform="translate(207,410)"/>
<path d="M0 0 C1.41750563 0.11509661 2.83401169 0.24253658 4.25 0.375 C5.03890625 0.44460937 5.8278125 0.51421875 6.640625 0.5859375 C9.085877 1.01507113 10.84836903 1.78600638 13 3 C8.05632546 4.20577428 4.79137588 3.6290678 0 2 C0 1.34 0 0.68 0 0 Z " fill="#BC72D1" transform="translate(382,51)"/>
<path d="M0 0 C1.32 0.99 2.64 1.98 4 3 C3.67 4.32 3.34 5.64 3 7 C1.68 6.67 0.36 6.34 -1 6 C-1.625 4.125 -1.625 4.125 -2 2 C-1.34 1.34 -0.68 0.68 0 0 Z " fill="#9116B2" transform="translate(292,270)"/>
<path d="M0 0 C0.33 0 0.66 0 1 0 C1.33 3.63 1.66 7.26 2 11 C1.01 11 0.02 11 -1 11 C-1.14285714 3.57142857 -1.14285714 3.57142857 0 0 Z " fill="#AC50C2" transform="translate(316,261)"/>
<path d="M0 0 C1.38317955 3.84216542 0.9279297 7.07414359 0 11 C-2.05078125 12.71484375 -2.05078125 12.71484375 -4 14 C-3.52188823 12.22888156 -3.0424722 10.45811517 -2.5625 8.6875 C-2.29566406 7.70136719 -2.02882813 6.71523438 -1.75390625 5.69921875 C-1.21920575 3.78482474 -0.62855462 1.88566385 0 0 Z " fill="#C37FD7" transform="translate(425,251)"/>
<path d="M0 0 C2.02907167 3.3146667 2.12742133 5.4315979 1.625 9.25 C1.51414062 10.14203125 1.40328125 11.0340625 1.2890625 11.953125 C1.19367188 12.62859375 1.09828125 13.3040625 1 14 C0.67 14 0.34 14 0 14 C-0.19532961 12.2300132 -0.38098882 10.45895721 -0.5625 8.6875 C-0.66691406 7.70136719 -0.77132813 6.71523437 -0.87890625 5.69921875 C-1 3 -1 3 0 0 Z " fill="#B15AC9" transform="translate(318,228)"/>
<path d="M0 0 C4.29 0 8.58 0 13 0 C12.67 0.99 12.34 1.98 12 3 C6.06 2.01 6.06 2.01 0 1 C0 0.67 0 0.34 0 0 Z " fill="#5E62C2" transform="translate(107,173)"/>
<path d="M0 0 C1 3 1 3 -0.4375 6.1875 C-1.2109375 7.5796875 -1.2109375 7.5796875 -2 9 C-2.66 9 -3.32 9 -4 9 C-3.67 6.69 -3.34 4.38 -3 2 C-2.01 2 -1.02 2 0 2 C0 1.34 0 0.68 0 0 Z " fill="#286BCC" transform="translate(41,120)"/>
<path d="M0 0 C0.33 0.99 0.66 1.98 1 3 C2.65 3 4.3 3 6 3 C6.33 3.99 6.66 4.98 7 6 C4.69 6.33 2.38 6.66 0 7 C-0.38133299 5.0085944 -0.71325582 3.00720923 -1 1 C-0.67 0.67 -0.34 0.34 0 0 Z " fill="#BB57D6" transform="translate(433,73)"/>
<path d="M0 0 C0.91007813 0.00902344 1.82015625 0.01804688 2.7578125 0.02734375 C3.45648438 0.03894531 4.15515625 0.05054688 4.875 0.0625 C4.545 0.7225 4.215 1.3825 3.875 2.0625 C0.17382394 2.90367638 -3.33771031 3.17389087 -7.125 3.0625 C-7.125 2.4025 -7.125 1.7425 -7.125 1.0625 C-4.60024538 -0.19987731 -2.81299534 -0.03606404 0 0 Z " fill="#4135B0" transform="translate(135.125,50.9375)"/>
<path d="M0 0 C3.3 0 6.6 0 10 0 C9 2 9 2 7.125 2.6875 C5 3 5 3 2 2 C1.67 2.33 1.34 2.66 1 3 C-0.66617115 3.04063832 -2.33388095 3.042721 -4 3 C-2.68 2.67 -1.36 2.34 0 2 C0 1.34 0 0.68 0 0 Z " fill="#A133BF" transform="translate(352,51)"/>
<path d="M0 0 C0 0.66 0 1.32 0 2 C-1.96875 3.5078125 -1.96875 3.5078125 -4.5 5.125 C-5.3353125 5.66382813 -6.170625 6.20265625 -7.03125 6.7578125 C-7.6809375 7.16773438 -8.330625 7.57765625 -9 8 C-9 7.01 -9 6.02 -9 5 C-8.34 5 -7.68 5 -7 5 C-6.67 3.68 -6.34 2.36 -6 1 C-3.92446352 0.4465236 -2.15634036 0 0 0 Z " fill="#A54EBA" transform="translate(283,426)"/>
<path d="M0 0 C2.64 0.33 5.28 0.66 8 1 C8 2.32 8 3.64 8 5 C8.66 5.33 9.32 5.66 10 6 C9.01 6.495 9.01 6.495 8 7 C6.66382648 6.02471263 5.3311249 5.04466681 4 4.0625 C3.2575 3.51722656 2.515 2.97195313 1.75 2.41015625 C1.1725 1.94480469 0.595 1.47945313 0 1 C0 0.67 0 0.34 0 0 Z " fill="#964CBD" transform="translate(225,424)"/>
<path d="M0 0 C0.99 0.495 0.99 0.495 2 1 C2 1.99 2 2.98 2 4 C2.66 4 3.32 4 4 4 C3.67 5.98 3.34 7.96 3 10 C2.34 10 1.68 10 1 10 C0.67 6.7 0.34 3.4 0 0 Z " fill="#CB96D8" transform="translate(417,243)"/>
<path d="M0 0 C2 2 2 2 2.25 5.375 C2.01788888 8.74061121 1.57547812 10.16163863 0 13 C-0.19466332 11.20909747 -0.38051213 9.41723495 -0.5625 7.625 C-0.66691406 6.62726563 -0.77132813 5.62953125 -0.87890625 4.6015625 C-1 2 -1 2 0 0 Z " fill="#AB52C4" transform="translate(315,210)"/>
<path d="M0 0 C0.66 0.33 1.32 0.66 2 1 C1.01 2.485 1.01 2.485 0 4 C-0.63292383 6.11280345 -0.63292383 6.11280345 -1 8 C-1.66 8 -2.32 8 -3 8 C-3.33 6.02 -3.66 4.04 -4 2 C-2.125 0.9375 -2.125 0.9375 0 0 Z " fill="#3F32C7" transform="translate(133,177)"/>
<path d="M0 0 C1.65 0 3.3 0 5 0 C4.67 0.598125 4.34 1.19625 4 1.8125 C2.79212012 4.05386471 2.79212012 4.05386471 3 7 C1.68 6.67 0.36 6.34 -1 6 C-0.67 4.02 -0.34 2.04 0 0 Z " fill="#134ED2" transform="translate(59,91)"/>
<path d="M0 0 C4.62 0 9.24 0 14 0 C14 0.33 14 0.66 14 1 C12.42249576 1.41846009 10.83755752 1.80896389 9.25 2.1875 C7.92742187 2.51814453 7.92742187 2.51814453 6.578125 2.85546875 C4 3 4 3 0 0 Z " fill="#5626A9" transform="translate(170,378)"/>
<path d="M0 0 C0.99 0.33 1.98 0.66 3 1 C2.67 4.3 2.34 7.6 2 11 C1.67 11 1.34 11 1 11 C0.67 7.37 0.34 3.74 0 0 Z " fill="#C480D7" transform="translate(410,200)"/>
<path d="M0 0 C0.66 0 1.32 0 2 0 C3.6875 2.3125 3.6875 2.3125 5 5 C4.67 5.99 4.34 6.98 4 8 C3.01 7.67 2.02 7.34 1 7 C0.67 4.69 0.34 2.38 0 0 Z " fill="#9F44B9" transform="translate(252,118)"/>
<path d="M0 0 C1.32 0 2.64 0 4 0 C5.125 3.75 5.125 3.75 4 6 C2.68 6 1.36 6 0 6 C0 4.02 0 2.04 0 0 Z " fill="#B64ED7" transform="translate(416,65)"/>
<path d="M0 0 C0 0.66 0 1.32 0 2 C1.0725 1.95875 2.145 1.9175 3.25 1.875 C6.77723487 1.9925745 8.061073 2.34847907 11 4 C8.68690295 3.88658363 6.37449815 3.75896193 4.0625 3.625 C2.13083984 3.52058594 2.13083984 3.52058594 0.16015625 3.4140625 C-1.40412109 3.20910156 -1.40412109 3.20910156 -3 3 C-3.33 2.34 -3.66 1.68 -4 1 C-2 0 -2 0 0 0 Z " fill="#4830AB" transform="translate(149,265)"/>
<path d="M0 0 C2 3 2 3 1.625 5.6875 C1.41875 6.450625 1.2125 7.21375 1 8 C0.01 7.34 -0.98 6.68 -2 6 C-2.1875 3.375 -2.1875 3.375 -2 1 C-1.34 0.67 -0.68 0.34 0 0 Z " fill="#731BA9" transform="translate(223,239)"/>
<path d="M0 0 C0.99 0.33 1.98 0.66 3 1 C3.33 2.65 3.66 4.3 4 6 C2.35 6 0.7 6 -1 6 C-0.67 4.02 -0.34 2.04 0 0 Z " fill="#9329B7" transform="translate(283,240)"/>
<path d="M0 0 C2.83022097 3.99560608 1.76210446 7.42737323 1 12 C0.67 12 0.34 12 0 12 C-0.19401633 10.18818595 -0.38004375 8.37551468 -0.5625 6.5625 C-0.66691406 5.55316406 -0.77132813 4.54382813 -0.87890625 3.50390625 C-0.91886719 2.67761719 -0.95882813 1.85132813 -1 1 C-0.67 0.67 -0.34 0.34 0 0 Z " fill="#AD5DC5" transform="translate(313,199)"/>
<path d="M0 0 C0.66 0 1.32 0 2 0 C2.1875 2.875 2.1875 2.875 2 6 C1.01 6.66 0.02 7.32 -1 8 C-2.2077558 4.37673261 -1.54311128 3.35853631 0 0 Z " fill="#C77EDD" transform="translate(475,198)"/>
<path d="M0 0 C1.98 0 3.96 0 6 0 C6 0.66 6 1.32 6 2 C6.66 2 7.32 2 8 2 C7.67 2.66 7.34 3.32 7 4 C4.69 3.67 2.38 3.34 0 3 C0 2.01 0 1.02 0 0 Z " fill="#3638CC" transform="translate(110,170)"/>
<path d="M0 0 C0.66 0.33 1.32 0.66 2 1 C0.87548273 3.9719385 -0.22293791 6.33440687 -2 9 C-2.66 9 -3.32 9 -4 9 C-4 8.34 -4 7.68 -4 7 C-3.34 7 -2.68 7 -2 7 C-2.33 6.01 -2.66 5.02 -3 4 C-2.67 3.34 -2.34 2.68 -2 2 C-1.34 2 -0.68 2 0 2 C0 1.34 0 0.68 0 0 Z " fill="#0E53CC" transform="translate(50,103)"/>
<path d="M0 0 C-1.65 1.65 -3.3 3.3 -5 5 C-5.33 4.34 -5.66 3.68 -6 3 C-6.66 2.67 -7.32 2.34 -8 2 C-4.77208445 -0.1519437 -3.71599191 -0.20086443 0 0 Z " fill="#AD4FC6" transform="translate(332,387)"/>
<path d="M0 0 C2.0625 0.4375 2.0625 0.4375 4 1 C4 2.32 4 3.64 4 5 C3.01 5.33 2.02 5.66 1 6 C0.34 4.35 -0.32 2.7 -1 1 C-0.67 0.67 -0.34 0.34 0 0 Z " fill="#A943C5" transform="translate(353,361)"/>
<path d="M0 0 C-0.34879632 3.25543229 -1.02133261 4.01873107 -3.5625 6.25 C-4.366875 6.8275 -5.17125 7.405 -6 8 C-6 4 -6 4 -4.125 1.75 C-2 0 -2 0 0 0 Z " fill="#C480D5" transform="translate(403,317)"/>
<path d="M0 0 C0.66 0 1.32 0 2 0 C2 2.64 2 5.28 2 8 C1.34 8 0.68 8 0 8 C-0.33 8.66 -0.66 9.32 -1 10 C-0.67 6.7 -0.34 3.4 0 0 Z " fill="#AE59C4" transform="translate(305,232)"/>
<path d="M0 0 C0.99 0.33 1.98 0.66 3 1 C2.1875 2.9375 2.1875 2.9375 1 5 C0.01 5.33 -0.98 5.66 -2 6 C-1.125 1.125 -1.125 1.125 0 0 Z " fill="#9230AD" transform="translate(267,434)"/>
<path d="M0 0 C0.99 0.99 1.98 1.98 3 3 C2.34 4.32 1.68 5.64 1 7 C0.34 7 -0.32 7 -1 7 C-1.625 4.625 -1.625 4.625 -2 2 C-1.34 1.34 -0.68 0.68 0 0 Z " fill="#B953D4" transform="translate(427,281)"/>
<path d="M0 0 C2.26609984 4.53219967 1.92735976 6.17772925 1 11 C0.34 11 -0.32 11 -1 11 C-0.67 7.37 -0.34 3.74 0 0 Z " fill="#AE57C3" transform="translate(301,256)"/>
<path d="M0 0 C0.66 0.33 1.32 0.66 2 1 C1.67 2.32 1.34 3.64 1 5 C0.34 5 -0.32 5 -1 5 C-1.33 5.99 -1.66 6.98 -2 8 C-2.66 8 -3.32 8 -4 8 C-2.87548273 5.0280615 -1.77706209 2.66559313 0 0 Z " fill="#926FBF" transform="translate(189,234)"/>
<path d="M0 0 C1.98 0.99 1.98 0.99 4 2 C3.67 4.97 3.34 7.94 3 11 C2.67 11 2.34 11 2 11 C1.34 7.37 0.68 3.74 0 0 Z " fill="#D187E4" transform="translate(406,181)"/>
<path d="M0 0 C0.33 1.32 0.66 2.64 1 4 C-2 6 -2 6 -4.1875 5.625 C-4.785625 5.41875 -5.38375 5.2125 -6 5 C-4.02 3.35 -2.04 1.7 0 0 Z " fill="#9A59BD" transform="translate(225,369)"/>
<path d="M0 0 C0 1.32 0 2.64 0 4 C-1.32 4.33 -2.64 4.66 -4 5 C-4.33 3.68 -4.66 2.36 -5 1 C-2 0 -2 0 0 0 Z " fill="#9022AE" transform="translate(286,223)"/>
<path d="M0 0 C1.98 0.495 1.98 0.495 4 1 C3.67 2.65 3.34 4.3 3 6 C1.68 5.34 0.36 4.68 -1 4 C-0.67 2.68 -0.34 1.36 0 0 Z " fill="#0C59D0" transform="translate(36,197)"/>
<path d="M0 0 C0.66 0 1.32 0 2 0 C2.99 2.97 3.98 5.94 5 9 C4.01 8.67 3.02 8.34 2 8 C0.5522078 5.10441559 0 3.25811062 0 0 Z " fill="#D394E2" transform="translate(471,120)"/>
<path d="M0 0 C0.66 0 1.32 0 2 0 C2.33 1.65 2.66 3.3 3 5 C1.35 5.66 -0.3 6.32 -2 7 C-1.34 4.69 -0.68 2.38 0 0 Z " fill="#8A07AE" transform="translate(269,101)"/>
<path d="M0 0 C0 0.66 0 1.32 0 2 C0.66 2 1.32 2 2 2 C2.33 3.32 2.66 4.64 3 6 C2.34 5.67 1.68 5.34 1 5 C1 4.34 1 3.68 1 3 C-0.98 3 -2.96 3 -5 3 C-2.25 0 -2.25 0 0 0 Z " fill="#5169D0" transform="translate(90,65)"/>
<path d="M0 0 C1.98 0 3.96 0 6 0 C5.67 0.99 5.34 1.98 5 3 C3.35 3 1.7 3 0 3 C0 2.01 0 1.02 0 0 Z " fill="#432FBC" transform="translate(140,51)"/>
<path d="M0 0 C-1.36983503 3.16115776 -1.9890638 3.9927092 -5 6 C-5.33 5.01 -5.66 4.02 -6 3 C-2.25 0 -2.25 0 0 0 Z " fill="#AE5BC6" transform="translate(370,351)"/>
<path d="M0 0 C0 1.65 0 3.3 0 5 C-0.99 5.495 -0.99 5.495 -2 6 C-2.66 5.67 -3.32 5.34 -4 5 C-3.625 3.0625 -3.625 3.0625 -3 1 C-1 0 -1 0 0 0 Z " fill="#B451CE" transform="translate(405,312)"/>
<path d="M0 0 C1.98 0.99 1.98 0.99 4 2 C4 3.98 4 5.96 4 8 C2 6.25 2 6.25 0 4 C0 2.68 0 1.36 0 0 Z " fill="#681FA0" transform="translate(209,226)"/>
<path d="M0 0 C0.66 0.33 1.32 0.66 2 1 C2.75 3.375 2.75 3.375 3 6 C2.01 7.485 2.01 7.485 1 9 C0.01 6.36 -0.98 3.72 -2 1 C-1.34 0.67 -0.68 0.34 0 0 Z " fill="#AA51C3" transform="translate(290,215)"/>
<path d="M0 0 C1.67542976 0.28604898 3.34385343 0.61781233 5 1 C4.67 2.65 4.34 4.3 4 6 C2 5 2 5 1 2 C0.34 1.67 -0.32 1.34 -1 1 C-0.67 0.67 -0.34 0.34 0 0 Z " fill="#5F21AD" transform="translate(191,216)"/>
<path d="M0 0 C1.32 0.33 2.64 0.66 4 1 C3.01 2.485 3.01 2.485 2 4 C2 4.99 2 5.98 2 7 C1.34 7 0.68 7 0 7 C0 4.69 0 2.38 0 0 Z " fill="#0B58CB" transform="translate(36,130)"/>
<path d="M0 0 C2.50037734 2.17424117 3.43628586 3.73045798 4 7 C3.01 6.67 2.02 6.34 1 6 C1 5.34 1 4.68 1 4 C0.34 4 -0.32 4 -1 4 C-0.67 2.68 -0.34 1.36 0 0 Z " fill="#D18FE1" transform="translate(463,103)"/>
<path d="M0 0 C2.475 0.495 2.475 0.495 5 1 C4.67 2.32 4.34 3.64 4 5 C3.34 5 2.68 5 2 5 C1.34 3.35 0.68 1.7 0 0 Z " fill="#BA6ACF" transform="translate(405,57)"/>
<path d="M0 0 C0.99 0.33 1.98 0.66 3 1 C2.01 1.495 2.01 1.495 1 2 C1 2.66 1 3.32 1 4 C-0.875 4.625 -0.875 4.625 -3 5 C-3.66 4.34 -4.32 3.68 -5 3 C-2.6875 1.4375 -2.6875 1.4375 0 0 Z " fill="#9424B6" transform="translate(323,58)"/>
</svg>
